<?xml version="1.0" standalone="no"?>
<!DOCTYPE svg PUBLIC "-//W3C//DTD SVG 20010904//EN"
 "http://www.w3.org/TR/2001/REC-SVG-20010904/DTD/svg10.dtd">
<svg version="1.0" xmlns="http://www.w3.org/2000/svg"
 width="539.000000pt" height="539.000000pt" viewBox="0 0 539.000000 539.000000"
 preserveAspectRatio="xMidYMid meet">

<g transform="translate(0.000000,539.000000) scale(0.100000,-0.100000)"
fill="#000000" stroke="none">
<path d="M1467 5280 c-86 -15 -114 -97 -61 -176 85 -128 255 -250 420 -303 76
-24 218 -45 271 -40 53 5 45 -9 -10 -18 -41 -7 -41 -7 -12 -13 l30 -6 -32 -8
c-18 -4 -33 -11 -33 -16 0 -12 65 -22 94 -14 33 8 33 -3 1 -66 -19 -38 -36
-55 -73 -74 l-47 -25 33 -1 c18 0 47 7 63 16 29 15 30 15 20 -4 -6 -11 -32
-39 -58 -62 -45 -40 -46 -42 -19 -36 17 4 42 16 58 27 15 11 28 17 28 12 1 -4
10 11 20 34 11 23 31 102 45 175 14 73 23 108 21 78 -7 -96 -47 -287 -67 -319
-31 -52 -87 -71 -204 -70 -58 1 -87 4 -70 8 41 9 21 16 -106 36 -172 27 -249
44 -295 65 -58 25 -47 8 19 -31 29 -17 41 -27 27 -24 -40 11 -157 84 -210 132
-55 50 -130 185 -130 235 0 19 18 57 48 103 26 39 52 80 59 91 8 12 7 5 -2
-23 -7 -23 -30 -65 -49 -93 -20 -29 -36 -63 -36 -77 0 -28 29 -86 64 -128 23
-27 22 -20 -13 55 l-38 86 27 32 c14 18 31 32 36 32 5 0 17 -20 28 -45 29 -72
137 -175 226 -217 79 -38 247 -83 340 -92 72 -7 42 5 -80 34 -97 22 -196 63
-243 100 -38 30 -33 43 10 25 20 -8 39 -13 41 -10 3 3 -15 25 -41 49 -49 45
-59 66 -29 66 11 0 5 7 -17 21 -24 15 -31 23 -22 29 10 5 7 12 -10 25 -14 10
-17 15 -7 12 47 -16 101 -28 105 -23 3 3 -14 18 -38 33 -117 75 -169 139 -169
210 0 53 -11 61 -31 21 l-18 -33 6 40 c3 22 10 48 15 58 11 22 -13 32 -147 59
-147 29 -310 27 -403 -5 -114 -39 -161 -111 -147 -221 9 -62 33 -112 93 -191
117 -154 177 -208 363 -333 141 -95 266 -157 428 -213 121 -41 131 -47 101
-52 -19 -2 -61 -11 -92 -18 -69 -16 -114 -2 -105 32 5 20 5 20 -14 4 -26 -24
-47 -6 -56 49 l-7 41 -7 -34 c-8 -39 6 -227 22 -286 17 -62 63 -156 97 -198
19 -24 35 -59 42 -93 13 -63 24 -71 18 -14 -4 46 -2 47 32 20 58 -46 38 -14
-38 60 -72 69 -123 143 -109 156 2 2 18 -3 36 -12 54 -27 53 -22 -32 95 -21
29 -29 52 -29 85 -1 26 2 49 5 52 4 4 25 6 47 5 67 -3 74 -3 105 4 17 3 37 6
45 7 8 0 20 4 25 8 6 5 29 13 52 19 38 10 56 7 199 -34 86 -25 159 -47 162
-50 3 -2 -5 -31 -16 -62 -13 -33 -17 -59 -12 -61 13 -5 13 -53 0 -86 -5 -14
-7 -26 -5 -26 8 0 34 70 57 152 16 58 25 77 36 73 7 -3 19 -5 26 -5 17 0 37
-91 27 -126 -5 -20 -13 -28 -26 -26 -15 3 -16 -1 -11 -24 6 -23 5 -26 -7 -16
-17 14 -27 6 -27 -22 0 -20 0 -20 -14 0 -14 18 -15 18 -25 -9 -20 -51 -6 -85
21 -50 7 10 22 18 33 18 13 0 21 8 23 23 3 19 6 21 18 11 8 -6 14 -8 15 -3 1
5 3 27 6 49 8 65 8 139 0 156 -7 14 -1 15 55 7 57 -8 141 -4 161 9 4 2 0 11
-8 19 -8 9 -15 31 -15 50 0 27 4 34 19 34 11 0 23 -4 26 -10 13 -21 25 -9 25
25 0 19 4 35 9 35 5 0 33 -22 63 -48 95 -87 121 -91 183 -29 35 34 45 53 55
102 23 109 -17 235 -105 333 -79 88 -220 185 -326 223 -55 20 -56 21 -57 62
-3 56 -39 107 -120 167 -129 96 -304 174 -457 203 -108 21 -153 25 -198 17z
m639 -735 c-11 -8 -25 -15 -30 -15 -6 1 0 7 14 15 32 19 40 18 16 0z m-686
-349 c0 -3 -4 -8 -10 -11 -5 -3 -10 -1 -10 4 0 6 5 11 10 11 6 0 10 -2 10 -4z"/>
<path d="M2106 4445 c-16 -13 -50 -29 -75 -36 -25 -7 -40 -14 -33 -17 20 -6
108 27 127 48 26 29 15 32 -19 5z"/>
<path d="M1265 4347 c-7 -26 17 -133 39 -178 13 -25 12 -27 -21 -43 -33 -16
-73 -80 -72 -116 0 -8 8 3 18 25 20 45 67 95 87 95 18 0 18 -5 -12 91 -15 47
-23 91 -20 105 9 34 9 38 -3 42 -6 2 -13 -8 -16 -21z"/>
<path d="M2440 4194 c0 -33 -2 -36 -22 -30 -71 22 -74 -6 -9 -78 28 -31 61
-77 73 -102 24 -53 20 -58 -46 -68 -37 -6 -44 -12 -70 -57 -15 -28 -26 -53
-23 -56 7 -7 42 13 74 43 l27 25 23 -38 c13 -21 23 -44 23 -51 0 -21 -29 -72
-77 -137 -88 -117 -94 -142 -78 -320 6 -69 4 -108 -9 -170 -9 -44 -20 -83 -25
-88 -5 -5 -42 -20 -82 -34 -40 -13 -170 -71 -288 -128 -351 -168 -480 -199
-701 -168 -137 20 -308 23 -467 9 -57 -5 -103 -5 -103 -1 0 35 178 291 247
356 82 77 96 81 288 90 218 10 303 28 379 82 l29 21 -6 -35 -6 -34 16 29 c19
36 19 107 -1 161 -14 38 -15 39 -15 11 -1 -44 -38 -112 -79 -146 -55 -45 -118
-60 -252 -60 -137 0 -203 -11 -277 -45 -59 -27 -165 -122 -210 -188 -15 -23
-34 -46 -41 -50 -7 -5 -10 -12 -7 -17 5 -8 -88 -154 -105 -165 -5 -3 -21 -3
-36 1 -22 6 -25 11 -20 35 l6 29 -29 -21 c-16 -12 -37 -37 -48 -56 -18 -34
-18 -35 3 -52 l21 -17 -29 -49 c-63 -106 -118 -243 -118 -293 0 -13 -37 -75
-84 -140 -84 -117 -167 -258 -233 -397 -27 -58 -34 -86 -35 -136 -1 -35 4 -77
11 -93 17 -41 22 -28 8 22 -15 57 2 150 42 235 17 37 90 154 161 261 72 108
130 200 130 206 0 5 16 10 36 10 20 0 75 12 122 26 79 24 96 26 189 20 107 -7
136 -13 131 -27 -2 -4 -42 -48 -89 -96 -105 -108 -234 -261 -278 -328 l-32
-50 38 45 c158 184 299 343 346 389 55 53 56 54 97 45 38 -8 43 -13 65 -67 23
-57 81 -144 136 -202 30 -32 53 -110 66 -220 l7 -60 6 73 c9 109 20 114 103
44 68 -57 114 -109 175 -196 31 -44 57 -65 68 -53 9 8 -18 51 -67 108 -26 30
-70 82 -98 116 -28 34 -96 98 -151 143 -107 86 -166 153 -206 232 -33 64 -32
79 5 72 36 -7 181 11 242 30 43 14 41 14 -51 9 -52 -3 -169 0 -260 7 -214 15
-438 14 -518 -3 -93 -20 -79 3 43 74 189 110 251 120 509 84 169 -23 373 -17
458 13 103 37 103 44 -2 37 -53 -3 -179 1 -285 10 -344 27 -529 19 -650 -30
-32 -13 -60 -23 -62 -21 -2 2 12 36 31 76 l35 73 63 2 c35 2 104 13 153 25 78
19 109 21 230 17 77 -3 198 -10 268 -17 99 -9 159 -9 260 -1 274 25 365 59
639 242 90 60 148 94 148 85 0 -8 -23 -79 -50 -158 l-51 -144 -57 -11 c-31 -6
-73 -18 -92 -26 l-35 -16 45 6 c25 3 65 12 88 19 43 12 44 12 38 -9 -46 -159
-77 -332 -71 -394 18 -183 27 -395 16 -406 -6 -6 -11 -19 -11 -28 0 -26 -56
-129 -139 -254 -46 -71 -79 -134 -92 -178 -31 -101 -22 -148 61 -316 48 -97
78 -174 98 -253 30 -115 65 -202 85 -215 6 -4 8 0 4 11 -6 16 -13 53 -41 227
-9 50 -38 150 -72 240 -94 254 -88 327 45 514 l68 95 7 127 c4 72 2 170 -3
223 -6 52 -8 130 -4 174 5 67 11 85 37 120 38 50 139 104 212 112 48 6 51 5
57 -17 21 -76 -2 -296 -40 -390 -8 -21 -13 -44 -11 -51 7 -21 46 94 69 204 12
57 22 138 23 180 1 67 3 78 19 78 15 0 17 11 17 100 l0 100 38 0 c37 0 114
-29 125 -47 3 -5 -2 -38 -12 -74 -11 -35 -29 -107 -41 -159 -29 -123 -114
-379 -150 -450 -37 -72 -65 -97 -187 -161 -90 -47 -105 -52 -123 -41 -22 14
-25 10 -10 -19 15 -27 58 -24 111 9 24 16 81 48 126 71 123 64 167 134 203
326 46 246 62 322 86 396 14 44 29 79 34 79 5 0 20 -4 34 -10 l26 -10 0 88 c0
69 5 99 25 147 14 33 25 65 25 72 0 6 22 37 49 68 27 30 51 67 54 80 5 28 -5
32 -23 10 -26 -32 -39 -4 -24 53 6 22 7 22 28 5 20 -17 20 -16 -1 7 -21 24
-21 30 -13 92 6 42 6 85 0 117 -9 48 -35 111 -46 111 -2 0 3 -14 12 -32 9 -18
19 -59 21 -93 5 -61 -21 -243 -37 -259 -4 -4 -35 1 -69 13 -45 15 -85 21 -151
21 -89 0 -90 0 -97 28 -5 15 -8 83 -8 152 0 117 2 128 27 170 14 25 38 56 51
69 23 20 32 23 74 17 26 -4 57 -9 68 -12 16 -4 17 -3 5 5 -8 5 -36 13 -62 16
-26 4 -48 10 -48 14 0 4 16 23 36 42 48 46 70 84 84 144 7 28 30 90 52 139 38
82 41 97 48 210 4 66 6 123 4 125 -2 2 -16 -18 -33 -44 -20 -31 -32 -66 -36
-104 -9 -87 -12 -93 -56 -160 -47 -68 -50 -68 -68 17 -34 158 -29 147 -82 182
-27 17 -53 39 -59 49 -5 10 -25 30 -45 45 l-35 27 0 -37z m137 -219 c6 -22 14
-49 17 -60 4 -11 -4 0 -18 25 -14 25 -25 56 -26 70 0 33 15 14 27 -35z m122
-976 c27 -11 59 -31 71 -45 23 -23 23 -24 5 -71 -10 -26 -21 -52 -26 -57 -4
-5 -33 13 -64 39 -47 41 -64 49 -108 53 -48 5 -51 4 -38 -12 8 -10 42 -30 76
-45 36 -17 70 -40 81 -57 33 -49 54 -103 54 -139 l0 -34 -50 34 c-43 29 -85
46 -178 71 -9 2 -10 15 -6 44 4 25 2 45 -5 54 -9 11 -9 20 -2 35 17 30 13 44
-9 38 -27 -7 -26 10 7 73 l27 52 58 -6 c33 -3 81 -15 107 -27z"/>
<path d="M1702 4000 c9 -28 35 -34 92 -20 31 7 56 17 56 22 0 6 -14 6 -32 2
-39 -9 -65 -9 -97 1 -18 6 -23 5 -19 -5z"/>
<path d="M1800 3920 c-8 -5 -36 -7 -61 -4 -39 5 -49 3 -75 -20 l-29 -25 40 -2
c63 -3 198 2 218 8 16 4 13 9 -17 29 -38 26 -53 29 -76 14z"/>
<path d="M1214 3913 c-17 -12 -36 -52 -29 -63 4 -6 15 -6 31 0 35 14 36 13 24
-9 -5 -11 -10 -24 -10 -30 0 -14 37 -14 45 -1 11 18 25 10 25 -15 0 -29 7 -31
32 -8 17 15 19 15 32 -2 12 -17 16 -17 30 -5 22 17 17 64 -6 68 -13 2 -18 -3
-18 -17 0 -12 -4 -21 -10 -21 -5 0 -10 9 -10 20 0 21 -19 27 -36 10 -7 -7 -10
-4 -10 12 1 18 -4 23 -21 22 -17 0 -22 5 -20 20 2 22 -28 33 -49 19z"/>
<path d="M1990 3866 c0 -2 8 -10 18 -17 15 -13 16 -12 3 4 -13 16 -21 21 -21
13z"/>
<path d="M1943 3793 c-81 -115 -116 -143 -177 -143 -20 0 -36 -5 -36 -11 0 -8
12 -9 37 -4 48 9 82 26 115 60 l27 27 11 -39 c6 -21 22 -60 36 -88 13 -27 21
-41 17 -30 -3 11 -15 55 -26 98 -18 68 -19 82 -7 100 62 100 64 117 3 30z"/>
<path d="M1700 3810 c31 -27 40 -30 80 -25 66 8 67 20 1 20 -38 1 -68 7 -87
18 -25 16 -25 14 6 -13z"/>
<path d="M1551 3574 c0 -11 3 -14 6 -6 3 7 2 16 -1 19 -3 4 -6 -2 -5 -13z"/>
<path d="M2047 3453 c18 -18 41 -33 50 -33 12 0 8 5 -12 16 -16 8 -39 23 -51
32 -11 9 -5 2 13 -15z"/>
<path d="M655 2901 c-11 -5 -29 -19 -40 -31 l-20 -23 33 19 c19 10 38 25 44
32 12 14 11 14 -17 3z"/>
<path d="M1835 2611 c-60 -26 -166 -79 -235 -118 -69 -39 -143 -80 -165 -91
-55 -29 -24 -27 65 3 78 27 154 66 271 140 41 26 101 62 134 81 82 46 60 42
-70 -15z"/>
<path d="M1656 2620 c-27 -11 -54 -24 -60 -30 -16 -17 38 -3 99 25 61 29 31
32 -39 5z"/>
<path d="M409 1793 c-13 -16 -12 -17 4 -4 9 7 17 15 17 17 0 8 -8 3 -21 -13z"/>
<path d="M371 1736 l-21 -33 -77 4 -78 3 51 -18 c28 -10 64 -28 80 -41 l29
-23 7 45 c3 25 14 56 23 71 10 14 15 26 12 26 -3 0 -15 -15 -26 -34z"/>
<path d="M1171 1670 c-7 -23 -10 -44 -8 -47 7 -6 29 65 25 79 -2 6 -10 -8 -17
-32z"/>
<path d="M2725 1695 c-292 -54 -558 -272 -557 -455 1 -84 47 -124 142 -123
112 2 258 119 248 200 -4 34 -28 44 -28 11 0 -34 -64 -124 -112 -156 -33 -22
-53 -27 -99 -27 -76 0 -104 25 -103 88 3 126 143 278 348 376 117 57 170 71
259 71 106 0 140 -45 102 -136 -8 -20 -59 -98 -112 -175 l-98 -138 -66 -1
c-43 0 -70 -5 -78 -13 -17 -21 -7 -24 54 -17 30 3 55 3 55 0 0 -3 -13 -21 -28
-40 -111 -135 -202 -271 -202 -300 0 -17 51 -11 87 11 25 16 31 24 22 30 -10
6 -3 22 25 66 68 103 166 231 182 237 9 3 49 6 90 6 43 0 74 4 74 10 0 6 -30
10 -70 10 -38 0 -70 3 -70 8 0 4 42 64 93 133 52 70 101 142 110 162 42 87 4
147 -106 166 -75 13 -72 13 -162 -4z"/>
<path d="M1353 1610 c9 -6 17 -17 17 -24 0 -9 25 -15 88 -19 100 -7 181 -24
306 -67 49 -16 91 -28 93 -26 13 13 -168 93 -273 121 -73 20 -258 32 -231 15z"/>
<path d="M214 1596 c-58 -13 -184 -70 -184 -82 0 -7 299 -303 445 -439 117
-110 171 -145 222 -145 40 0 40 -4 13 -109 -11 -43 -27 -111 -36 -152 -18 -82
-35 -428 -25 -499 5 -35 9 -16 14 85 14 230 51 436 122 669 20 65 45 136 56
158 32 63 8 61 -30 -2 l-21 -35 0 35 c0 19 3 46 7 59 6 22 9 23 57 17 46 -5
73 -12 199 -48 21 -6 40 -8 44 -5 8 9 -16 36 -52 60 -16 10 -21 16 -10 12 11
-3 50 -9 88 -12 76 -7 88 5 32 31 -45 22 -45 30 0 22 52 -10 45 8 -32 85 -61
60 -73 67 -120 74 l-51 7 40 53 c41 55 49 59 136 71 48 6 104 35 92 47 -6 6
-72 9 -155 8 -60 -2 -60 -2 -89 -47 -31 -50 -131 -134 -158 -134 -16 0 -75
-64 -97 -107 -6 -12 -11 -33 -11 -47 0 -13 -3 -31 -6 -39 -14 -37 -206 193
-272 325 -18 37 -41 72 -52 78 -33 18 -102 20 -166 6z m771 -401 l30 -14 -35
6 c-19 3 -42 9 -50 14 -26 15 22 10 55 -6z m-316 -89 c-14 -34 -20 -63 -17
-97 2 -42 1 -47 -9 -32 -21 28 -15 92 13 140 33 57 40 50 13 -11z"/>
<path d="M4043 1488 c-44 -48 -101 -129 -173 -248 -35 -58 -79 -122 -99 -143
-39 -42 -98 -77 -129 -77 -19 0 -19 3 4 113 27 130 40 173 66 206 22 29 23 57
2 65 -24 9 -82 -41 -281 -241 -102 -103 -182 -175 -198 -179 -67 -17 -55 48
35 185 33 51 60 96 60 101 0 5 -10 12 -22 16 -13 4 -33 18 -46 31 -19 21 -29
24 -60 18 -65 -11 -125 -47 -194 -116 -69 -70 -118 -150 -118 -194 0 -33 50
-85 82 -85 29 0 59 20 119 77 l46 44 7 -40 c8 -51 41 -76 86 -66 17 4 57 31
89 61 l59 54 26 -55 c22 -44 33 -56 61 -64 40 -11 85 -2 140 27 22 12 46 22
53 22 7 0 31 9 52 20 42 22 49 18 25 -14 -18 -24 -20 -66 -2 -66 19 0 31 11
75 71 22 31 66 81 96 110 54 52 166 132 174 125 2 -3 -15 -36 -38 -74 -52 -89
-65 -132 -50 -177 17 -53 57 -56 119 -11 26 20 54 43 61 51 20 24 25 18 25
-30 1 -55 13 -68 62 -68 49 0 93 23 155 81 l49 45 -3 -31 c-5 -63 33 -97 94
-85 57 11 208 176 208 227 0 16 12 28 46 44 26 13 44 25 41 28 -3 3 -14 1 -25
-5 -37 -20 -55 -14 -49 16 11 58 -29 95 -84 78 -35 -12 -116 -92 -180 -181
-75 -105 -188 -194 -246 -194 -19 0 -23 6 -23 31 0 44 20 81 99 184 61 78 68
92 56 104 -30 30 -66 2 -138 -107 -77 -115 -153 -185 -196 -180 -21 2 -25 8
-23 28 4 36 37 95 99 178 111 148 25 147 -184 -3 -42 -30 -78 -53 -80 -51 -6
6 21 47 92 141 106 140 145 198 145 217 0 29 -33 21 -67 -14z m-413 -205 c0
-35 -34 -198 -49 -236 -12 -30 -53 -51 -86 -43 -66 17 -85 90 -38 148 33 42
155 158 165 158 5 0 8 -12 8 -27z m-370 -4 c0 -20 -138 -205 -189 -252 -50
-47 -88 -64 -117 -53 -27 10 -12 78 31 136 42 57 122 128 180 159 43 23 95 28
95 10z m1468 -107 c-32 -92 -166 -213 -207 -187 -16 9 -13 51 5 88 27 53 97
139 129 158 30 19 30 18 55 -9 21 -21 24 -32 18 -50z"/>
<path d="M4416 1395 c-13 -35 23 -63 64 -50 24 8 27 50 4 59 -28 11 -62 6 -68
-9z"/>
<path d="M1332 1345 c92 -13 266 -53 411 -94 37 -11 67 -18 67 -16 0 2 -35 24
-77 49 -110 64 -167 76 -348 75 l-150 -1 97 -13z"/>
<path d="M5135 1288 c-27 -18 -93 -75 -146 -125 -53 -51 -99 -93 -103 -93 -9
0 36 86 78 149 38 56 42 84 15 89 -11 2 -47 -34 -101 -100 -47 -57 -95 -112
-107 -122 -11 -11 -21 -26 -21 -35 0 -9 17 1 45 29 25 24 45 42 45 38 0 -3 -9
-26 -21 -52 -25 -58 -23 -110 6 -114 15 -2 44 26 110 105 87 105 181 200 189
192 3 -2 -13 -33 -35 -69 -95 -158 -85 -267 21 -223 40 16 180 150 180 172 0
7 -29 -16 -64 -52 -178 -182 -213 -86 -47 127 34 44 60 87 59 95 -6 29 -51 24
-103 -11z"/>
<path d="M3055 775 c-16 -8 -10 -239 7 -243 10 -2 12 22 10 118 -3 114 -2 120
17 120 11 0 27 -7 35 -16 20 -20 21 -73 1 -80 -12 -5 -10 -10 10 -26 29 -23
33 -63 8 -90 -22 -25 2 -23 27 2 27 27 25 56 -4 83 -21 20 -22 25 -10 42 19
26 18 49 -5 69 -18 17 -77 29 -96 21z"/>
<path d="M3269 765 c-67 -36 -70 -172 -5 -217 l31 -22 -19 22 c-13 15 -21 42
-24 82 -5 73 2 103 30 130 25 23 23 24 -13 5z"/>
<path d="M4009 765 c-71 -39 -67 -194 6 -227 14 -6 25 -15 25 -19 0 -19 64
-69 88 -69 l27 0 -32 20 c-17 10 -37 29 -43 40 -10 18 -9 22 7 26 36 10 58 55
58 121 0 51 -4 66 -24 87 -35 37 -44 32 -19 -9 45 -77 3 -215 -60 -198 -65 17
-74 183 -13 230 21 16 12 15 -20 -2z"/>
<path d="M3356 749 c15 -17 19 -36 19 -94 0 -64 -3 -77 -25 -100 l-25 -27 27
13 c61 27 77 151 28 204 -28 30 -51 34 -24 4z"/>
<path d="M3448 758 c8 -8 12 -45 12 -99 0 -83 1 -89 26 -108 33 -26 65 -27 95
-2 22 17 24 29 29 120 3 64 1 101 -5 101 -6 0 -9 -36 -7 -94 4 -107 -7 -129
-62 -124 -44 4 -57 36 -54 136 3 81 3 82 -21 82 -20 0 -22 -3 -13 -12z"/>
<path d="M3650 745 c0 -14 2 -25 4 -25 2 0 11 11 20 25 16 24 16 25 -4 25 -15
0 -20 -7 -20 -25z"/>
<path d="M3720 755 c8 -10 11 -47 8 -119 -2 -89 -1 -104 12 -103 13 1 15 16
12 98 -3 60 0 104 7 118 11 19 9 21 -20 21 -26 0 -30 -2 -19 -15z"/>
<path d="M3806 748 c10 -13 20 -25 21 -27 2 -2 3 8 3 22 0 21 -5 27 -22 27
-21 0 -21 0 -2 -22z"/>
<path d="M3877 653 c1 -93 5 -119 16 -121 12 -2 15 19 16 118 1 109 0 120 -16
120 -16 0 -18 -11 -16 -117z"/>
<path d="M4198 673 c3 -90 5 -100 28 -120 31 -28 64 -29 95 -4 22 17 24 29 29
120 3 64 1 101 -5 101 -6 0 -9 -34 -7 -89 4 -108 -5 -131 -52 -131 -51 0 -61
20 -61 126 0 77 -3 94 -15 94 -13 0 -14 -16 -12 -97z"/>
<path d="M4410 650 c0 -108 2 -120 18 -120 15 0 17 11 14 114 -2 103 -1 115
15 119 10 3 3 5 -14 6 l-33 1 0 -120z"/>
<path d="M4504 755 c35 -18 36 -18 36 0 0 10 -10 15 -32 15 l-33 0 29 -15z"/>
<path d="M4490 670 c-13 -9 -13 -11 0 -20 15 -10 25 0 18 20 -2 6 -8 6 -18 0z"/>
<path d="M4510 554 c-22 -12 -22 -14 -6 -20 18 -7 41 8 35 23 -2 5 -15 3 -29
-3z"/>
</g>
</svg>
