<?xml version="1.0" standalone="no"?>
<!DOCTYPE svg PUBLIC "-//W3C//DTD SVG 20010904//EN"
 "http://www.w3.org/TR/2001/REC-SVG-20010904/DTD/svg10.dtd">
<svg version="1.0" xmlns="http://www.w3.org/2000/svg"
 width="626.000000pt" height="489.000000pt" viewBox="0 0 626.000000 489.000000"
 preserveAspectRatio="xMidYMid meet">

<g transform="translate(0.000000,489.000000) scale(0.100000,-0.100000)"
fill="#000000" stroke="none">
<path d="M1648 4085 c-205 -33 -512 -164 -733 -313 -205 -137 -339 -268 -396
-387 -48 -100 -36 -162 40 -204 38 -21 58 -24 135 -25 50 0 109 3 131 8 32 6
38 5 28 -5 -7 -7 -13 -27 -13 -44 0 -30 -3 -33 -60 -48 -75 -21 -104 -58 -96
-122 3 -22 6 -58 6 -80 -1 -125 71 -655 101 -753 14 -44 38 -58 136 -79 l83
-18 -55 -85 c-70 -108 -95 -186 -95 -294 0 -194 73 -357 278 -620 48 -61 111
-149 141 -194 l54 -83 125 3 125 3 63 285 c120 541 132 691 62 780 -11 14 -15
26 -9 28 14 5 14 25 -1 74 -12 40 -47 68 -86 68 -16 0 -72 66 -72 85 0 4 -15
26 -34 51 -19 25 -42 65 -52 90 -14 38 -15 50 -4 88 7 25 20 52 30 61 17 15
18 14 25 -27 9 -55 34 -102 83 -158 l40 -45 28 21 c45 33 62 106 53 239 -8
135 -32 328 -37 298 -3 -18 -10 -23 -32 -23 -16 0 -35 -3 -44 -6 -12 -4 -23
19 -51 110 l-37 117 36 52 c45 66 54 112 31 160 -19 41 -78 106 -109 122 -14
8 -20 19 -18 35 3 27 0 25 -18 -9 -8 -15 -8 -21 -1 -17 6 4 11 3 11 -3 0 -5
-5 -11 -12 -13 -8 -3 -5 -16 10 -42 27 -46 27 -59 -2 -118 -17 -35 -26 -44
-34 -36 -7 7 -8 17 -2 29 39 72 26 104 -14 35 -34 -58 -36 -140 -5 -180 12
-15 30 -65 40 -113 23 -106 23 -102 2 -101 -10 0 -48 -3 -85 -7 -48 -6 -92 -3
-158 10 -104 20 -178 16 -236 -13 -25 -12 -52 -18 -74 -15 -20 3 -60 -4 -93
-15 -68 -22 -63 -31 -72 119 -8 125 2 171 46 220 18 18 29 29 26 23 -7 -11 17
-16 173 -30 57 -5 68 -3 93 16 30 24 34 46 12 77 -13 19 -13 22 1 27 9 3 30 6
47 6 50 0 60 12 65 77 3 38 11 65 23 79 11 11 16 24 12 28 -4 4 1 4 10 0 12
-4 26 1 40 14 12 11 56 37 96 57 41 20 92 48 113 61 21 13 40 24 43 24 8 0 -5
-47 -27 -100 l-18 -45 36 39 c34 35 36 42 30 82 -3 24 -2 44 3 44 19 0 212
153 286 227 271 271 193 456 -167 398z m75 -307 c-33 -61 -121 -152 -189 -197
-41 -27 -44 -28 -14 -4 122 98 218 214 221 268 1 17 2 17 6 3 2 -10 -8 -41
-24 -70z m-258 -244 c-26 -20 -55 -36 -55 -30 0 5 63 46 70 46 3 -1 -4 -8 -15
-16z m-65 -39 c0 -2 -10 -9 -22 -15 -22 -11 -22 -10 -4 4 21 17 26 19 26 11z
m-50 -30 c0 -2 -10 -9 -22 -15 -22 -11 -22 -10 -4 4 21 17 26 19 26 11z m-70
-40 c0 -6 -97 -55 -107 -55 -4 1 17 14 47 30 61 32 60 32 60 25z m-220 -105
c-8 -5 -19 -10 -25 -10 -5 0 -3 5 5 10 8 5 20 10 25 10 6 0 3 -5 -5 -10z
m-163 -56 c-3 -3 -12 -4 -19 -1 -8 3 -5 6 6 6 11 1 17 -2 13 -5z m-40 -10 c-3
-3 -12 -4 -19 -1 -8 3 -5 6 6 6 11 1 17 -2 13 -5z m126 -235 c-6 -6 -32 -8
-59 -6 l-49 3 53 2 c56 2 64 10 32 30 -11 7 -20 16 -20 22 0 5 12 -2 27 -16
18 -17 23 -28 16 -35z m60 -608 c-2 -3 -16 8 -31 24 l-27 28 31 -24 c17 -13
30 -26 27 -28z m-36 -192 l6 -30 -39 16 c-21 8 -39 17 -41 18 -3 4 -23 178
-22 197 1 20 88 -163 96 -201z m660 189 c-3 -8 -6 -5 -6 6 -1 11 2 17 5 13 3
-3 4 -12 1 -19z m-580 -4 c-3 -3 -12 -4 -19 -1 -8 3 -5 6 6 6 11 1 17 -2 13
-5z m83 -274 c8 -5 11 -10 5 -10 -5 0 -17 5 -25 10 -8 5 -10 10 -5 10 6 0 17
-5 25 -10z m50 -20 c8 -5 11 -10 5 -10 -5 0 -17 5 -25 10 -8 5 -10 10 -5 10 6
0 17 -5 25 -10z m122 -49 c49 -19 86 -36 84 -38 -5 -5 -156 53 -176 68 -18 13
-17 12 92 -30z m-295 -47 c-3 -3 -12 -4 -19 -1 -8 3 -5 6 6 6 11 1 17 -2 13
-5z m452 -10 c10 -9 -35 -3 -49 6 -11 8 -7 9 15 4 17 -4 32 -8 34 -10z m-396
-1 c-7 -2 -19 -2 -25 0 -7 3 -2 5 12 5 14 0 19 -2 13 -5z m44 -9 c-3 -3 -12
-4 -19 -1 -8 3 -5 6 6 6 11 1 17 -2 13 -5z m63 -14 c20 -6 21 -8 5 -8 -11 0
-29 3 -40 8 -25 11 1 11 35 0z m57 -16 c-3 -3 -12 -4 -19 -1 -8 3 -5 6 6 6 11
1 17 -2 13 -5z m46 -11 c-7 -2 -19 -2 -25 0 -7 3 -2 5 12 5 14 0 19 -2 13 -5z
m50 -10 c-7 -2 -19 -2 -25 0 -7 3 -2 5 12 5 14 0 19 -2 13 -5z m92 -18 c54
-17 33 -18 -30 -1 -27 8 -41 14 -30 14 11 0 38 -5 60 -13z m-488 -207 c-3 -7
-5 -2 -5 12 0 14 2 19 5 13 2 -7 2 -19 0 -25z m-10 -70 c-3 -7 -5 -2 -5 12 0
14 2 19 5 13 2 -7 2 -19 0 -25z m52 -156 c16 -32 85 -144 154 -248 172 -262
284 -444 273 -444 -2 0 -32 46 -67 103 -34 56 -125 198 -201 314 -145 223
-209 340 -207 383 1 19 3 16 10 -12 5 -21 22 -64 38 -96z"/>
<path d="M1368 3332 c-26 -17 -26 -18 -8 -30 24 -15 76 -16 85 -2 3 6 3 19 0
30 -8 25 -41 26 -77 2z"/>
<path d="M1306 3232 l31 -14 -33 -66 c-41 -84 -52 -143 -29 -166 13 -13 14
-17 3 -21 -8 -3 -14 -24 -15 -51 -2 -51 13 -51 23 2 4 20 15 39 27 46 20 10
20 11 2 24 -10 7 -22 11 -27 8 -5 -4 -8 9 -6 27 2 27 10 37 35 49 29 13 33 19
33 58 0 32 6 49 24 67 l24 24 -47 10 c-25 5 -53 11 -61 13 -8 2 -1 -2 16 -10z"/>
<path d="M1067 2984 c-12 -13 -7 -34 8 -34 8 0 24 -9 35 -20 11 -11 25 -20 30
-20 6 0 10 -6 10 -14 0 -16 24 -38 33 -30 7 8 -12 43 -35 65 -10 9 -18 21 -18
27 0 5 -8 12 -17 16 -10 3 -23 8 -29 11 -5 3 -13 2 -17 -1z"/>
<path d="M1213 2863 c-14 -5 -19 -93 -5 -93 4 0 17 3 30 6 20 6 23 12 20 48
-3 40 -16 52 -45 39z m37 -43 c0 -5 -4 -10 -10 -10 -5 0 -10 5 -10 10 0 6 5
10 10 10 6 0 10 -4 10 -10z"/>
<path d="M2476 1908 c-18 -225 -19 -278 -4 -278 12 0 16 16 20 68 10 130 45
161 199 169 l99 6 0 -520 c0 -471 -2 -522 -16 -534 -10 -8 -53 -16 -103 -20
-47 -3 31 -6 174 -6 154 0 224 3 172 6 -61 5 -91 11 -97 21 -6 9 -10 231 -10
534 l0 519 93 -5 c148 -8 182 -35 200 -162 8 -54 15 -76 25 -76 11 0 13 10 9
43 -4 23 -9 102 -13 175 -4 72 -11 132 -16 132 -5 0 -8 -19 -6 -42 l3 -43
-359 -3 -359 -2 6 45 c4 25 3 45 -2 45 -5 0 -11 -33 -15 -72z"/>
<path d="M2323 1878 c4 -41 2 -68 -3 -68 -6 0 -10 4 -10 10 0 18 -79 60 -143
77 -52 13 -74 14 -135 4 -88 -13 -137 -37 -184 -89 -47 -52 -62 -99 -56 -181
9 -121 61 -184 263 -316 201 -131 241 -185 233 -311 -3 -50 -10 -72 -34 -106
-81 -116 -270 -123 -377 -13 -51 52 -75 109 -87 200 -10 79 -15 94 -26 82 -11
-10 7 -417 18 -417 6 0 7 30 3 82 l-7 81 31 -35 c17 -19 59 -48 93 -64 57 -26
73 -29 173 -29 105 0 114 2 177 33 79 38 122 87 143 156 18 59 19 88 4 156
-23 108 -108 195 -304 316 -158 96 -200 153 -193 265 6 103 53 153 157 166
142 17 247 -78 260 -236 4 -40 11 -66 19 -69 11 -3 12 28 7 174 -4 99 -12 184
-17 189 -7 7 -9 -12 -5 -57z"/>
<path d="M5171 1895 c-310 -58 -495 -353 -426 -679 15 -72 61 -180 94 -222 16
-21 17 -29 8 -60 -13 -43 -64 -89 -114 -103 -21 -6 -104 -11 -186 -11 l-148 0
16 30 c13 25 15 99 15 518 0 366 3 491 12 500 7 7 37 12 67 12 30 0 52 2 49 6
-7 7 -379 7 -386 -1 -3 -3 20 -5 51 -5 94 0 88 41 85 -540 -2 -373 -6 -512
-15 -521 -6 -6 -38 -15 -70 -19 -33 -4 94 -7 290 -6 l347 1 1 -45 c2 -70 17
-11 18 70 1 36 4 75 7 87 6 22 7 22 51 -12 102 -78 218 -115 359 -115 98 0
214 24 281 59 96 48 217 171 193 195 -8 8 -14 5 -22 -8 -21 -37 -90 -105 -138
-136 -136 -87 -347 -109 -484 -51 -59 26 -138 100 -175 165 -42 74 -72 186
-78 293 l-6 93 450 0 c336 0 452 3 461 12 26 26 7 157 -37 248 -32 68 -121
159 -187 193 -114 58 -254 77 -383 52z m219 -31 c145 -40 245 -181 258 -360
l4 -71 -128 -6 c-71 -4 -248 -7 -392 -7 l-264 0 7 63 c14 122 70 246 137 302
98 83 251 115 378 79z"/>
<path d="M3400 1890 c-69 -3 -111 -7 -93 -8 20 -1 39 -12 55 -30 13 -16 83
-144 156 -284 l132 -256 0 -238 c0 -133 -5 -246 -10 -254 -7 -11 -36 -17 -107
-21 -58 -3 12 -6 172 -6 158 0 233 3 181 6 -72 5 -91 10 -102 26 -12 17 -14
64 -12 270 l4 250 128 245 c71 135 138 255 149 268 13 13 32 22 50 22 17 0 27
3 23 7 -8 8 -276 7 -284 -2 -3 -3 24 -5 59 -5 65 0 88 -10 90 -40 1 -16 -222
-469 -231 -469 -3 -1 -27 41 -52 92 -99 193 -200 383 -215 399 -14 16 -11 17
33 20 103 6 -4 13 -126 8z"/>
</g>
</svg>
