<?xml version="1.0" standalone="no"?>
<!DOCTYPE svg PUBLIC "-//W3C//DTD SVG 20010904//EN"
 "http://www.w3.org/TR/2001/REC-SVG-20010904/DTD/svg10.dtd">
<svg version="1.0" xmlns="http://www.w3.org/2000/svg"
 width="600.000000pt" height="600.000000pt" viewBox="0 0 600.000000 600.000000"
 preserveAspectRatio="xMidYMid meet">

<g transform="translate(0.000000,600.000000) scale(0.100000,-0.100000)"
fill="#000000" stroke="none">
<path d="M1508 4014 c-5 -4 -8 -274 -8 -600 l0 -592 88 -6 c116 -9 364 -1 432
14 30 7 92 30 138 52 362 172 447 674 162 958 -71 71 -147 116 -255 150 -62
20 -97 23 -310 27 -132 3 -243 2 -247 -3z m506 -244 c78 -30 145 -96 177 -176
20 -50 24 -76 23 -174 0 -149 -21 -207 -100 -279 -75 -69 -144 -94 -259 -95
l-90 -1 1 175 c1 96 2 267 3 379 l1 204 93 -5 c61 -4 112 -13 151 -28z"/>
<path d="M3820 4005 c-178 -40 -334 -161 -408 -316 -53 -112 -67 -173 -67
-299 1 -80 6 -123 24 -180 62 -204 224 -360 432 -416 82 -22 249 -22 342 0
248 59 399 258 421 559 l6 87 -284 0 -285 0 -3 -96 c-2 -53 -1 -98 1 -100 2
-2 62 -4 133 -4 l128 0 0 -26 c0 -43 -50 -122 -99 -159 -66 -48 -138 -69 -217
-62 -200 16 -335 197 -321 431 5 105 29 177 82 249 140 189 423 179 546 -20
l20 -33 112 56 c62 31 114 58 116 60 5 5 -29 56 -64 95 -65 73 -158 132 -262
165 -69 22 -271 27 -353 9z"/>
<path d="M2783 3646 c-58 -19 -100 -52 -122 -94 -41 -82 -36 -149 18 -234 l30
-47 -32 -20 c-48 -30 -104 -91 -122 -133 -21 -51 -19 -153 4 -203 69 -150 308
-191 463 -80 l49 35 45 -45 46 -45 106 0 105 0 -19 23 c-23 27 -15 18 -99 105
l-69 72 69 70 70 70 -56 56 -56 56 -59 -72 -59 -72 -72 79 -72 78 44 38 c52
45 99 109 109 150 4 17 1 50 -8 81 -26 87 -97 137 -206 142 -37 2 -83 -2 -107
-10z m137 -126 c34 -34 27 -83 -21 -131 -40 -40 -41 -40 -61 -22 -51 46 -62
110 -23 148 30 31 77 33 105 5z m-26 -447 l77 -88 -27 -21 c-56 -45 -134 -52
-182 -15 -31 23 -53 88 -40 121 11 30 67 90 83 90 7 0 46 -39 89 -87z"/>
<path d="M992 2471 c-147 -51 -222 -207 -163 -338 79 -172 324 -208 453 -65
125 138 56 354 -130 406 -73 20 -94 20 -160 -3z m176 -72 c118 -58 136 -225
33 -312 -139 -117 -349 9 -309 185 27 122 159 183 276 127z"/>
<path d="M1717 2473 c-66 -22 -129 -81 -157 -145 -45 -104 -9 -232 83 -299 82
-60 180 -71 276 -33 39 15 41 18 41 60 0 24 -3 44 -6 44 -3 0 -19 -11 -35 -25
-81 -68 -229 -33 -280 67 -32 62 -24 154 17 204 66 82 167 100 255 46 l49 -31
0 44 0 44 -55 20 c-66 25 -122 26 -188 4z"/>
<path d="M2855 2474 c-55 -19 -109 -66 -143 -122 -23 -40 -27 -58 -27 -122 0
-112 47 -189 145 -234 65 -30 189 -29 248 2 54 29 98 89 113 157 18 81 18 81
-112 80 l-114 -2 0 -28 0 -29 75 0 c74 -1 75 -1 72 -26 -9 -92 -144 -140 -250
-89 -121 59 -138 241 -30 322 84 63 178 56 260 -21 25 -23 30 -24 58 -12 16 7
30 16 30 20 0 18 -94 90 -137 104 -57 19 -134 19 -188 0z"/>
<path d="M389 2470 c0 -3 0 -111 0 -240 l1 -235 110 -3 c94 -2 115 0 149 18
85 43 133 123 133 222 0 110 -77 217 -168 234 -41 8 -224 11 -225 4z m219 -74
c56 -29 102 -103 102 -164 0 -54 -30 -121 -68 -150 -29 -22 -47 -27 -109 -30
l-73 -4 0 181 0 181 60 0 c34 0 73 -6 88 -14z"/>
<path d="M3362 2471 c-8 -5 -202 -463 -202 -477 0 -2 17 -4 39 -4 38 0 39 1
61 60 13 34 30 64 39 68 14 7 171 7 175 0 1 -2 13 -30 27 -63 24 -58 26 -60
66 -63 l41 -3 -53 128 c-129 310 -150 356 -166 359 -9 1 -21 -1 -27 -5z m78
-273 c0 -5 -27 -8 -60 -8 -33 0 -60 1 -60 3 0 2 27 74 50 132 l12 30 29 -75
c16 -41 29 -78 29 -82z"/>
<path d="M3635 2472 c-3 -3 -5 -113 -5 -244 l0 -238 118 0 c98 0 122 3 149 20
53 32 67 65 64 144 -1 19 -14 41 -38 65 l-38 37 18 35 c27 51 18 116 -22 151
-29 26 -38 28 -114 29 -45 0 -92 2 -105 3 -12 2 -24 0 -27 -2z m193 -76 c9 -9
16 -31 15 -53 -1 -49 -31 -73 -89 -73 l-44 0 0 68 c0 38 3 72 8 76 12 13 93 0
110 -18z m16 -197 c36 -17 49 -62 31 -104 -15 -37 -31 -44 -110 -48 l-50 -2
-3 83 -3 82 55 0 c30 0 66 -5 80 -11z"/>
<path d="M4004 2471 c-2 -2 -4 -112 -4 -243 l0 -238 118 0 c98 0 122 3 149 20
81 49 84 171 6 228 -27 20 -27 21 -10 40 26 28 32 82 14 124 -24 57 -50 68
-166 71 -57 1 -105 0 -107 -2z m191 -71 c15 -13 21 -76 7 -96 -13 -19 -50 -34
-86 -34 l-36 0 0 76 0 77 50 -5 c27 -3 56 -11 65 -18z m29 -211 c20 -16 26
-29 26 -58 0 -55 -30 -78 -105 -83 l-60 -3 -3 83 -3 82 59 0 c45 0 66 -5 86
-21z"/>
<path d="M5473 2468 c-6 -7 -45 -98 -88 -203 -43 -104 -86 -209 -96 -233 l-19
-43 42 3 c41 3 42 4 68 67 l26 65 89 0 90 1 27 -65 c26 -64 27 -65 67 -68 23
-2 41 -1 41 1 0 2 -43 107 -95 233 -85 204 -112 254 -136 254 -3 0 -11 -6 -16
-12z m60 -205 l27 -73 -60 0 c-33 0 -60 3 -60 8 0 21 54 152 60 145 4 -4 19
-41 33 -80z"/>
<path d="M1367 2243 c1 -126 2 -234 2 -240 1 -10 29 -13 106 -13 l105 0 0 25
c0 27 1 26 -85 29 l-50 1 -3 213 -2 212 -38 0 -37 0 2 -227z"/>
<path d="M1980 2230 l0 -240 125 0 125 0 0 30 0 30 -85 0 -85 0 0 80 0 79 83
3 c81 3 82 3 85 31 l3 27 -85 0 -86 0 0 75 0 75 85 0 c84 0 85 0 85 25 l0 25
-125 0 -125 0 0 -240z"/>
<path d="M4489 2423 c-12 -26 -49 -118 -84 -203 -35 -85 -71 -172 -80 -193
l-16 -38 42 3 c41 3 43 4 63 60 12 31 25 60 28 64 4 4 47 7 94 8 l87 1 28 -65
c27 -64 28 -65 69 -68 32 -3 41 0 37 10 -3 7 -48 114 -99 238 -88 210 -96 225
-121 228 -24 3 -30 -2 -48 -45z m76 -146 c14 -37 25 -72 25 -77 0 -6 -25 -10
-55 -10 -30 0 -55 4 -55 9 0 15 52 152 56 148 2 -2 15 -33 29 -70z"/>
<path d="M4790 2230 l0 -240 35 0 35 0 0 171 c0 94 4 169 8 167 5 -1 80 -79
167 -171 128 -136 163 -167 182 -165 l23 3 2 238 3 237 -32 0 -33 0 -2 -177
-3 -176 -165 176 c-136 146 -170 177 -192 177 l-28 0 0 -240z"/>
<path d="M2406 2214 c-18 -17 -21 -60 -6 -69 6 -4 0 -18 -15 -37 -61 -72 -2
-143 91 -108 19 8 30 8 38 0 5 -5 19 -10 30 -10 18 0 19 1 1 20 -16 18 -17 23
-5 45 17 31 6 44 -18 22 -17 -16 -20 -15 -39 11 -20 27 -20 28 -2 51 24 29 24
53 1 74 -23 21 -56 22 -76 1z m60 -29 c4 -8 0 -22 -7 -31 -11 -13 -14 -13 -27
0 -17 17 -9 46 13 46 9 0 18 -7 21 -15z m-7 -111 c12 -15 21 -30 21 -35 0 -14
-40 -30 -60 -24 -24 8 -34 39 -20 65 15 27 34 25 59 -6z"/>
</g>
</svg>
