<?xml version="1.0" standalone="no"?>
<!DOCTYPE svg PUBLIC "-//W3C//DTD SVG 20010904//EN"
 "http://www.w3.org/TR/2001/REC-SVG-20010904/DTD/svg10.dtd">
<svg version="1.0" xmlns="http://www.w3.org/2000/svg"
 width="500.000000pt" height="321.000000pt" viewBox="0 0 500.000000 321.000000"
 preserveAspectRatio="xMidYMid meet">

<g transform="translate(0.000000,321.000000) scale(0.100000,-0.100000)"
fill="#000000" stroke="none">
<path d="M2949 1980 c-113 -20 -208 -90 -251 -184 -22 -48 -23 -66 -26 -288
-4 -288 -8 -278 116 -278 120 0 114 -11 113 233 -1 143 2 213 10 229 34 64
102 77 150 29 l29 -29 0 -214 c0 -153 3 -217 12 -226 8 -8 46 -12 105 -12 83
0 93 2 103 21 8 14 11 97 8 257 -3 224 -4 240 -26 284 -63 128 -207 203 -343
178z"/>
<path d="M3325 1973 c-71 -21 -74 -28 -33 -71 21 -20 46 -58 57 -83 18 -40 26
-48 56 -53 60 -12 65 -34 65 -281 0 -263 -4 -255 123 -255 52 0 90 5 101 13
16 11 18 37 19 267 2 295 0 305 -77 385 -44 45 -64 56 -123 74 -82 24 -119 25
-188 4z"/>
<path d="M789 1970 c-49 -8 -89 -26 -89 -38 0 -5 13 -18 30 -30 16 -12 41 -49
57 -82 21 -47 32 -60 49 -60 12 0 32 -9 45 -19 24 -19 24 -22 29 -249 6 -279
3 -272 116 -272 83 0 122 14 130 46 3 12 4 129 2 260 -3 218 -5 243 -24 284
-54 116 -202 184 -345 160z"/>
<path d="M312 1953 c-60 -21 -144 -102 -173 -165 -23 -50 -24 -65 -27 -293 -3
-236 -3 -240 18 -257 32 -26 159 -25 191 1 24 19 24 23 29 242 l5 222 27 20
c41 31 86 27 120 -11 l28 -32 0 -206 c0 -122 4 -213 10 -225 9 -17 22 -19 100
-19 69 0 92 4 105 16 14 15 16 46 13 263 l-3 246 -31 55 c-35 62 -106 122
-173 145 -56 19 -182 18 -239 -2z"/>
<path d="M1310 1953 c-38 -14 -40 -28 -40 -365 0 -391 -7 -368 118 -368 131 0
122 -29 122 370 0 339 0 339 -22 354 -22 16 -143 22 -178 9z"/>
<path d="M2080 1953 c-37 -13 -40 -32 -40 -269 0 -198 -2 -235 -16 -248 -8 -9
-20 -16 -25 -16 -5 0 -9 -50 -9 -111 l0 -112 56 7 c102 12 174 58 215 138 17
34 19 61 19 312 0 273 0 275 -22 290 -22 16 -143 22 -178 9z"/>
<path d="M3840 1934 c-6 -14 -10 -161 -10 -345 0 -383 -8 -359 123 -359 125 0
117 -26 117 364 0 206 -4 334 -10 347 -10 17 -22 19 -111 19 -98 0 -100 0
-109 -26z"/>
<path d="M4220 1948 l-25 -14 0 -286 0 -286 31 -44 c17 -23 53 -56 79 -73 41
-25 59 -30 113 -30 l64 0 0 98 c0 92 -1 99 -26 122 l-26 24 0 234 c0 206 -2
236 -17 248 -22 19 -160 24 -193 7z"/>
<path d="M4616 1944 c-14 -13 -16 -50 -16 -250 l0 -234 -25 -22 c-24 -20 -25
-27 -25 -126 l0 -105 58 6 c32 2 77 14 99 25 52 27 120 104 133 151 5 20 10
146 10 281 0 306 7 290 -125 290 -72 0 -97 -4 -109 -16z"/>
<path d="M1647 1932 c-15 -16 -17 -51 -17 -286 0 -244 2 -270 19 -304 45 -85
114 -132 207 -140 l64 -5 0 103 c0 97 -1 104 -25 126 l-25 23 0 234 c0 281 7
267 -122 267 -70 0 -88 -3 -101 -18z"/>
</g>
</svg>
