<?xml version="1.0" standalone="no"?>
<!DOCTYPE svg PUBLIC "-//W3C//DTD SVG 20010904//EN"
 "http://www.w3.org/TR/2001/REC-SVG-20010904/DTD/svg10.dtd">
<svg version="1.0" xmlns="http://www.w3.org/2000/svg"
 width="600.000000pt" height="600.000000pt" viewBox="0 0 600.000000 600.000000"
 preserveAspectRatio="xMidYMid meet">

<g transform="translate(0.000000,600.000000) scale(0.100000,-0.100000)"
fill="#000000" stroke="none">
<path d="M2845 4420 c-319 -84 -514 -309 -542 -626 l-6 -71 33 -6 c60 -13 404
-7 530 8 69 8 215 31 325 50 221 39 277 43 170 14 -213 -59 -530 -119 -730
-139 -143 -15 -426 -15 -540 0 -273 35 -484 126 -610 262 l-57 61 7 -59 c17
-157 63 -294 133 -396 79 -114 248 -241 397 -299 199 -78 454 -118 621 -99
157 17 252 53 462 174 226 130 367 190 491 211 l44 7 -7 -70 c-4 -39 -18 -110
-31 -159 -13 -48 -22 -89 -21 -91 4 -4 230 62 326 96 411 143 733 368 733 512
0 48 -21 75 -78 101 -61 27 -196 42 -315 34 -98 -6 -350 -38 -396 -51 -18 -5
-22 2 -38 58 -67 242 -272 427 -536 484 -94 20 -279 17 -365 -6z"/>
<path d="M2955 2942 c-17 -8 -53 -16 -82 -16 l-52 -1 51 -52 c48 -49 55 -52
114 -58 34 -4 86 -4 115 0 46 6 61 15 107 59 l54 52 -39 -4 c-23 -2 -56 3 -79
14 -53 23 -151 26 -189 6z"/>
<path d="M1578 2794 c-113 -27 -259 -117 -342 -212 -136 -154 -163 -337 -63
-433 39 -38 105 -62 149 -55 92 15 190 92 238 189 32 65 37 96 19 130 -17 32
-29 37 -84 35 -40 -1 -43 -2 -15 -5 50 -6 70 -28 70 -77 -1 -54 -29 -114 -82
-172 -50 -55 -90 -74 -154 -74 -100 0 -149 63 -142 184 8 166 150 347 342 437
128 60 261 55 296 -11 30 -56 -2 -195 -75 -325 -168 -299 -199 -403 -136 -466
38 -38 106 -42 166 -11 75 38 129 97 203 221 19 31 31 48 28 39 -3 -9 -10 -36
-16 -60 -16 -58 -100 -280 -112 -295 -7 -9 -41 -13 -102 -13 -290 -1 -532
-124 -436 -220 31 -31 64 -40 138 -40 127 1 268 67 372 176 l59 61 98 7 c54 4
114 11 134 17 50 13 89 54 88 93 l0 31 -12 -34 c-19 -53 -70 -75 -189 -79 -54
-3 -98 -2 -98 0 0 3 13 34 29 69 44 97 88 229 121 360 32 127 37 179 18 179
-26 0 -37 -17 -63 -90 -104 -290 -289 -486 -376 -399 -18 18 -20 29 -15 65 8
61 66 197 141 334 93 169 119 261 95 336 -18 55 -56 92 -114 109 -60 18 -102
18 -178 -1z m263 -1012 c-21 -38 -124 -125 -184 -152 -109 -52 -232 -63 -282
-26 -44 32 23 105 135 147 73 28 179 47 268 48 67 1 72 0 63 -17z"/>
<path d="M4808 2578 c-9 -7 -44 -72 -78 -144 l-62 -132 -57 5 c-101 9 -157
-33 -231 -175 -53 -103 -94 -152 -127 -152 -24 0 -25 2 -20 42 3 23 31 93 61
156 56 114 56 114 29 107 -44 -11 -111 -55 -176 -114 l-61 -56 29 50 c16 28
39 66 52 85 20 30 21 35 7 43 -28 16 -60 -19 -117 -130 -79 -151 -130 -209
-152 -173 -12 20 16 107 55 175 l39 66 -36 -3 c-35 -3 -40 -8 -90 -93 -83
-140 -153 -192 -161 -121 -10 88 131 276 206 276 14 0 34 -7 44 -17 21 -19 37
-10 19 11 -26 31 -77 39 -130 21 -66 -22 -123 -80 -166 -170 -31 -66 -33 -76
-24 -111 15 -52 26 -64 61 -64 31 0 82 43 120 100 l17 25 -6 -37 c-11 -72 50
-115 100 -70 19 16 20 16 14 0 -5 -15 -1 -18 23 -18 25 0 33 8 62 63 54 101
198 237 198 185 0 -6 -13 -35 -29 -63 -66 -116 -60 -185 16 -185 30 0 44 8 80
45 41 43 43 44 43 20 0 -33 33 -65 68 -65 32 0 62 22 97 69 22 31 25 33 25 12
0 -25 17 -62 34 -73 41 -28 111 23 157 113 41 82 36 98 -6 20 -19 -36 -47 -77
-62 -93 -51 -53 -84 -26 -63 52 13 48 156 332 223 442 26 42 47 79 47 82 0 11
-56 6 -72 -6z m-168 -288 c16 -10 21 -1 -69 -154 -84 -142 -152 -187 -159
-104 -6 68 87 206 167 248 42 23 42 22 61 10z"/>
<path d="M3313 2558 c-31 -34 -61 -86 -163 -283 -130 -253 -170 -309 -202
-289 -18 12 -2 77 46 180 25 56 46 104 46 108 0 4 -32 4 -72 0 l-72 -7 27 32
c27 33 34 74 17 101 -18 28 -42 -3 -62 -80 -40 -154 -115 -299 -171 -330 -24
-13 -29 -13 -38 0 -5 8 -7 31 -5 50 6 38 88 215 113 243 15 16 14 17 -20 17
-36 0 -38 -2 -78 -82 -77 -154 -141 -238 -179 -238 -41 0 -31 59 32 185 22 44
49 93 60 108 l20 28 -38 -3 c-39 -3 -39 -3 -100 -123 -70 -134 -118 -195 -155
-195 -48 0 -51 19 -14 71 48 64 65 109 65 169 0 167 -201 83 -266 -112 -37
-112 24 -180 118 -132 22 11 33 13 41 5 6 -6 29 -11 51 -11 33 0 45 6 77 40
l38 40 3 -38 c6 -75 92 -66 151 16 l32 45 3 -39 c7 -77 57 -95 117 -43 33 30
135 215 135 246 0 19 65 16 81 -3 11 -13 7 -27 -24 -87 -47 -92 -55 -129 -33
-162 34 -52 104 -14 166 88 18 29 29 43 25 32 -4 -11 -9 -38 -12 -61 -4 -34
-1 -45 18 -63 42 -39 130 -26 193 30 100 88 125 243 46 284 -33 17 -74 20 -65
5 3 -5 17 -10 30 -10 78 0 37 -164 -67 -269 -98 -99 -141 -6 -73 160 30 76
113 217 184 314 28 38 51 73 51 77 0 18 -58 7 -77 -14z m-973 -293 c17 -21 7
-103 -20 -155 -20 -39 -22 -41 -39 -26 -35 32 -65 -2 -50 -57 6 -21 4 -29 -12
-38 -71 -38 -90 38 -38 152 49 106 125 165 159 124z"/>
<path d="M3510 2391 c-5 -11 -10 -27 -10 -36 0 -46 -74 -226 -133 -325 l-21
-35 21 18 c20 18 77 123 107 200 12 29 20 37 40 37 66 0 70 -19 20 -113 -54
-102 -47 -177 16 -177 19 0 39 12 64 37 20 21 36 42 36 47 0 6 -16 -7 -35 -28
-74 -81 -80 -6 -11 141 25 55 46 105 46 112 0 9 -17 11 -65 7 -69 -5 -77 0
-46 28 25 23 34 61 21 86 -14 25 -36 26 -50 1z"/>
<path d="M2300 1840 c0 -5 9 -10 20 -10 17 0 20 -7 20 -50 0 -27 5 -50 10 -50
6 0 10 23 10 50 0 43 3 50 20 50 11 0 20 5 20 10 0 6 -22 10 -50 10 -27 0 -50
-4 -50 -10z"/>
<path d="M2565 1838 c-26 -73 -34 -102 -29 -107 3 -3 10 2 15 12 6 9 19 17 29
17 10 0 23 -8 29 -17 20 -37 21 -3 1 51 -21 54 -36 69 -45 44z m25 -48 c0 -11
-6 -20 -14 -20 -9 0 -12 7 -9 20 3 11 9 20 14 20 5 0 9 -9 9 -20z"/>
<path d="M2796 1837 c-13 -9 -17 -23 -14 -51 4 -45 24 -62 61 -52 34 8 40 56
7 56 -11 0 -20 -4 -20 -10 0 -5 5 -10 10 -10 6 0 10 -4 10 -10 0 -5 -11 -10
-25 -10 -22 0 -25 4 -25 40 0 32 4 40 18 40 10 0 23 -5 30 -12 6 -6 15 -8 19
-4 9 8 -24 36 -42 36 -6 0 -19 -6 -29 -13z"/>
<path d="M3032 1793 l-2 -63 35 0 c19 0 35 5 35 10 0 6 -13 10 -29 10 -29 0
-30 2 -34 53 l-3 52 -2 -62z"/>
<path d="M3250 1790 c0 -33 4 -60 10 -60 6 0 10 27 10 60 0 33 -4 60 -10 60
-6 0 -10 -27 -10 -60z"/>
<path d="M3430 1790 c0 -66 17 -83 22 -22 l3 37 22 -37 c12 -21 27 -38 33 -38
6 0 10 25 10 60 0 66 -17 83 -22 23 l-3 -38 -23 38 c-13 20 -28 37 -33 37 -5
0 -9 -27 -9 -60z"/>
<path d="M3680 1790 l0 -60 41 0 c24 0 38 4 34 10 -3 6 -17 10 -31 10 -15 0
-24 6 -24 15 0 9 9 15 25 15 14 0 25 5 25 10 0 6 -11 10 -25 10 -16 0 -25 6
-25 15 0 9 9 15 25 15 14 0 25 5 25 10 0 6 -16 10 -35 10 l-35 0 0 -60z"/>
<path d="M3910 1791 c0 -34 4 -61 10 -61 6 0 10 11 10 25 0 20 5 25 25 25 20
0 25 -5 25 -25 0 -14 5 -25 10 -25 6 0 10 27 10 60 0 33 -4 60 -10 60 -5 0
-10 -11 -10 -25 0 -20 -5 -25 -25 -25 -18 0 -25 5 -25 19 0 11 -4 23 -10 26
-6 4 -10 -17 -10 -54z"/>
<path d="M4160 1790 l0 -60 35 0 c19 0 35 5 35 10 0 6 -11 10 -25 10 -16 0
-25 6 -25 15 0 8 9 15 20 15 11 0 20 5 20 10 0 6 -9 10 -20 10 -11 0 -20 7
-20 15 0 9 9 15 25 15 14 0 25 5 25 10 0 6 -16 10 -35 10 l-35 0 0 -60z"/>
<path d="M4380 1790 c0 -57 15 -84 22 -40 4 27 21 28 33 1 5 -11 15 -21 22
-21 10 0 10 6 1 25 -9 19 -9 28 0 37 7 7 12 15 12 19 0 18 -34 39 -61 39 -29
0 -29 0 -29 -60z m65 20 c0 -8 -10 -16 -22 -18 -18 -3 -23 2 -23 18 0 16 5 21
23 18 12 -2 22 -10 22 -18z"/>
<path d="M4620 1790 l0 -60 40 0 c22 0 40 5 40 10 0 6 -13 10 -30 10 -20 0
-30 5 -30 15 0 9 9 15 25 15 14 0 25 5 25 10 0 6 -11 10 -25 10 -16 0 -25 6
-25 15 0 10 10 15 30 15 17 0 30 5 30 10 0 6 -18 10 -40 10 l-40 0 0 -60z"/>
</g>
</svg>
