<?xml version="1.0" standalone="no"?>
<!DOCTYPE svg PUBLIC "-//W3C//DTD SVG 20010904//EN"
 "http://www.w3.org/TR/2001/REC-SVG-20010904/DTD/svg10.dtd">
<svg version="1.0" xmlns="http://www.w3.org/2000/svg"
 width="1378.000000pt" height="1378.000000pt" viewBox="0 0 1378.000000 1378.000000"
 preserveAspectRatio="xMidYMid meet">

<g transform="translate(0.000000,1378.000000) scale(0.100000,-0.100000)"
fill="#000000" stroke="none">
<path d="M5398 11211 c-25 -10 -73 -39 -105 -64 -168 -129 -211 -247 -200
-552 8 -218 43 -354 96 -368 11 -3 49 14 92 39 120 72 164 54 164 -65 0 -72
-32 -155 -80 -213 -14 -17 -24 -32 -22 -35 3 -2 33 7 67 21 175 71 260 169
260 299 0 39 25 115 104 313 143 362 125 507 -78 611 -69 36 -225 44 -298 14z"/>
<path d="M5845 9885 c-74 -20 -140 -47 -277 -116 -302 -151 -490 -268 -663
-412 -126 -105 -177 -177 -183 -257 -3 -53 -2 -56 27 -72 29 -16 34 -16 103 6
118 37 260 106 458 221 359 209 341 199 351 184 5 -8 8 -21 7 -30 -2 -9 -63
-67 -136 -129 -374 -316 -581 -537 -582 -622 0 -10 11 -25 24 -33 22 -15 27
-15 58 1 18 9 79 52 135 94 139 106 399 249 578 317 49 19 120 48 158 65 37
17 70 29 73 25 12 -12 -29 -66 -108 -143 -104 -101 -140 -128 -312 -243 -157
-105 -305 -233 -348 -300 -36 -57 -35 -105 2 -132 24 -18 26 -18 75 4 28 12
113 54 190 93 133 68 405 194 420 194 40 0 -102 -139 -250 -245 -220 -158
-302 -298 -219 -376 28 -26 59 -27 154 -4 30 7 68 16 84 19 l29 7 -28 29 -28
29 -66 -26 c-102 -39 -124 -44 -136 -32 -11 11 183 206 329 328 101 86 151
147 167 203 12 46 -3 78 -49 102 -74 38 -149 27 -294 -44 -43 -22 -76 -35 -73
-30 3 5 76 63 163 128 162 124 276 231 307 292 10 19 24 57 31 85 13 46 12 51
-8 72 -63 67 -186 85 -303 45 -33 -11 -61 -19 -62 -18 -2 2 30 38 69 80 l73
77 43 -15 c104 -37 162 -101 267 -296 81 -149 143 -247 198 -314 l41 -49 -45
-41 c-66 -59 -119 -127 -262 -333 -103 -147 -145 -197 -223 -270 -57 -52 -108
-109 -125 -139 -20 -34 -47 -63 -82 -86 -89 -60 -307 -250 -414 -362 -366
-383 -680 -792 -912 -1185 -66 -112 -238 -446 -296 -577 -170 -379 -357 -873
-445 -1174 -51 -173 -63 -261 -50 -347 13 -76 27 -107 68 -147 28 -26 35 -28
77 -22 50 8 134 60 229 142 172 147 503 634 1194 1752 123 199 149 239 482
728 96 142 191 280 210 309 19 28 53 79 74 113 44 69 64 69 46 1 -19 -70 -77
-177 -155 -284 -78 -109 -486 -713 -601 -890 -244 -377 -374 -677 -486 -1120
-77 -305 -62 -490 46 -594 l36 -35 52 17 c107 34 235 163 383 387 122 184 296
483 385 660 43 85 112 218 154 295 43 77 114 212 158 300 197 391 274 532 284
522 3 -2 -11 -40 -31 -83 -20 -44 -49 -115 -65 -159 -16 -44 -69 -183 -118
-310 -102 -260 -282 -752 -317 -865 -61 -195 -108 -382 -113 -446 -6 -89 7
-130 57 -178 l39 -38 55 26 c71 34 111 79 182 207 64 114 216 432 263 550 76
191 200 455 274 583 122 213 152 259 167 264 34 11 -15 -207 -120 -535 -74
-232 -138 -463 -174 -624 -48 -219 -47 -262 14 -331 l37 -41 44 20 c62 28 123
96 287 323 78 107 175 233 215 279 134 155 257 228 288 171 32 -61 13 -282
-35 -401 -68 -170 -252 -339 -560 -515 -131 -75 -242 -118 -610 -237 -126 -41
-284 -96 -350 -122 -178 -70 -525 -243 -645 -322 -354 -233 -585 -558 -584
-823 0 -107 15 -142 95 -225 80 -84 122 -100 249 -99 156 1 300 50 580 196
359 187 1203 734 1755 1138 132 96 351 251 375 264 23 13 6 -2 -110 -101 -184
-157 -352 -349 -459 -527 -113 -188 -157 -365 -113 -452 27 -53 91 -110 139
-123 91 -26 245 -1 359 57 240 122 444 259 688 461 122 101 293 225 401 291
39 24 178 98 310 165 336 170 447 204 700 212 246 8 463 -40 700 -157 147 -72
353 -201 424 -265 23 -21 43 -36 46 -34 8 9 -70 92 -141 150 -150 122 -433
279 -614 340 -160 53 -258 70 -451 76 -260 8 -382 -14 -634 -114 -176 -70
-259 -111 -459 -231 -281 -166 -547 -354 -837 -592 -188 -153 -425 -280 -526
-280 -29 0 -33 3 -33 25 0 58 121 252 275 440 101 122 227 244 450 436 187
161 418 393 479 481 21 31 47 82 57 114 22 67 15 86 -48 125 -31 19 -55 24
-136 27 -234 10 -398 -57 -922 -375 -154 -93 -306 -186 -337 -206 -103 -67
-540 -371 -693 -483 -82 -61 -206 -148 -275 -194 -184 -122 -301 -205 -530
-375 -191 -142 -421 -295 -517 -343 -23 -12 -59 -24 -82 -28 -37 -6 -40 -5
-47 21 -11 45 4 114 42 186 150 285 673 651 1268 889 219 87 353 152 574 279
428 244 591 371 733 571 107 150 134 237 133 425 0 107 -4 140 -22 189 -36 98
-85 136 -174 136 -73 0 -145 -36 -225 -112 -79 -76 -137 -155 -323 -443 -78
-121 -151 -229 -162 -240 l-20 -20 7 35 c21 111 94 375 160 580 127 397 160
557 152 739 l-5 115 -36 33 c-21 19 -46 33 -61 33 -40 0 -117 -44 -159 -90
-130 -144 -371 -605 -532 -1020 -47 -118 -102 -255 -123 -305 -22 -49 -49
-112 -60 -139 -12 -27 -23 -47 -26 -45 -5 5 86 255 275 759 67 179 141 384
165 455 56 167 145 564 152 678 6 86 6 88 -22 117 -24 25 -37 30 -74 30 -162
-1 -285 -159 -615 -787 -173 -329 -251 -472 -327 -603 -40 -69 -124 -225 -185
-346 -139 -277 -221 -422 -245 -434 -14 -8 -20 -6 -29 9 -15 30 -13 47 25 187
82 298 207 630 339 899 86 173 337 604 513 880 224 350 292 476 354 657 26 76
35 188 20 243 -27 102 -120 130 -219 66 -62 -39 -244 -243 -493 -552 -419
-519 -679 -913 -1131 -1713 -162 -287 -373 -626 -435 -699 -26 -31 -48 -55
-49 -54 -3 3 41 168 62 231 58 174 410 957 563 1251 175 335 365 633 611 960
655 866 716 953 862 1219 37 69 58 93 158 179 380 326 636 616 670 759 12 47
11 51 -38 160 -27 62 -84 199 -127 303 -121 296 -214 484 -263 529 -22 21 -38
44 -36 50 8 20 -61 74 -103 82 l-37 7 39 33 c39 32 39 33 21 53 -22 24 -58 26
-131 6z m2135 -5510 c0 -8 -302 -232 -350 -260 -24 -13 -13 -4 120 102 166
133 230 177 230 158z"/>
<path d="M6722 7895 c-93 -29 -158 -114 -169 -221 l-6 -54 -38 0 -39 0 0 -85
0 -85 40 0 40 0 0 -220 0 -220 115 0 115 0 2 218 3 217 53 3 52 3 0 85 0 84
-55 0 c-55 0 -55 0 -55 30 0 20 9 40 26 57 22 22 32 25 70 20 l44 -5 0 88 c0
82 -1 88 -22 94 -38 10 -131 5 -176 -9z"/>
<path d="M8315 7888 c-3 -7 -4 -206 -3 -443 l3 -430 115 0 115 0 3 197 2 197
27 20 c48 38 105 23 129 -34 10 -25 14 -81 14 -210 l0 -175 115 0 115 0 0 208
c0 229 -8 276 -55 339 -15 19 -46 44 -69 54 -79 36 -212 17 -256 -36 -13 -16
-16 -1 -20 151 l-5 169 -113 3 c-85 2 -114 0 -117 -10z"/>
<path d="M9180 7890 c-69 -16 -100 -92 -65 -159 40 -78 187 -62 214 22 28 85
-52 159 -149 137z"/>
<path d="M7122 7620 c-64 -15 -123 -42 -119 -54 3 -7 13 -39 22 -73 l17 -60
51 19 c66 25 174 34 206 16 47 -25 35 -35 -61 -47 -120 -15 -207 -55 -246
-113 -38 -58 -43 -150 -12 -206 39 -69 102 -102 195 -102 58 0 107 14 146 41
28 20 39 16 39 -13 0 -16 10 -18 104 -18 l103 0 -4 218 c-5 199 -7 221 -28
268 -26 59 -74 100 -141 120 -50 15 -215 18 -272 4z m216 -354 c10 -51 -32
-106 -81 -106 -44 0 -67 17 -67 49 0 36 27 60 81 70 54 11 63 9 67 -13z"/>
<path d="M7843 7614 c-68 -24 -122 -80 -138 -141 -31 -118 29 -191 201 -244
57 -18 65 -23 62 -42 -3 -20 -10 -22 -64 -25 -43 -2 -81 4 -124 18 -34 12 -63
20 -64 18 -1 -2 -10 -36 -19 -77 -14 -60 -15 -76 -5 -83 30 -19 89 -30 184
-35 159 -9 257 29 302 117 25 50 28 106 8 153 -24 55 -69 88 -168 121 -101 34
-121 56 -73 78 25 11 53 8 166 -18 26 -6 28 -3 38 47 7 30 14 64 17 76 5 19
-1 24 -47 37 -67 20 -219 20 -276 0z"/>
<path d="M9673 7616 c-146 -47 -222 -149 -223 -297 0 -138 51 -224 168 -281
63 -31 72 -33 177 -33 98 0 116 3 166 26 70 33 134 95 162 158 27 58 29 197 4
251 -31 70 -73 115 -138 150 -60 32 -71 35 -169 37 -69 2 -120 -2 -147 -11z
m186 -167 c31 -29 42 -64 43 -134 0 -73 -12 -106 -48 -134 -31 -25 -64 -27
-103 -6 -76 39 -82 228 -10 279 33 23 90 21 118 -5z"/>
<path d="M10563 7611 c-24 -11 -54 -31 -67 -44 -27 -27 -36 -19 -36 29 0 24
-1 24 -100 24 l-100 0 0 -305 0 -305 115 0 c63 0 115 3 115 8 0 4 2 88 3 187
2 153 5 185 20 208 31 48 103 48 134 0 15 -23 19 -56 21 -215 l4 -188 115 0
115 0 -4 228 c-3 225 -3 227 -31 279 -40 78 -90 107 -186 111 -59 2 -86 -2
-118 -17z"/>
<path d="M9100 7315 l0 -305 115 0 115 0 0 305 0 305 -115 0 -115 0 0 -305z"/>
<path d="M7149 6787 c-98 -37 -144 -100 -144 -197 0 -107 48 -162 199 -225 90
-38 144 -78 162 -120 18 -44 18 -118 -1 -154 -50 -98 -202 -126 -329 -61 l-37
18 -10 -24 c-5 -14 -9 -27 -9 -29 0 -2 26 -14 58 -26 86 -33 199 -32 273 3 85
39 129 110 129 207 -1 100 -65 175 -198 231 -129 54 -182 107 -182 185 0 120
136 190 275 140 51 -19 52 -19 65 5 9 16 6 22 -22 36 -43 22 -181 29 -229 11z"/>
<path d="M9093 6781 c-168 -62 -263 -232 -250 -446 14 -242 154 -390 367 -389
165 0 299 112 346 289 18 68 17 217 -2 290 -29 112 -98 199 -194 243 -75 35
-193 41 -267 13z m212 -48 c60 -20 132 -89 163 -155 86 -186 37 -443 -104
-537 -150 -99 -342 -40 -418 128 -101 226 -19 502 169 569 46 16 136 14 190
-5z"/>
<path d="M7860 6375 l0 -415 30 0 30 0 0 205 0 205 230 0 230 0 0 -205 0 -205
25 0 25 0 0 415 0 415 -25 0 -25 0 -1 -167 c-1 -93 -2 -175 -3 -183 -1 -13
-35 -15 -228 -18 l-228 -2 0 185 0 185 -30 0 -30 0 0 -415z"/>
<path d="M10008 6783 l-28 -4 0 -410 0 -409 30 0 30 0 0 173 0 172 98 0 c117
1 180 24 240 89 50 54 65 101 60 181 -5 85 -44 148 -113 184 -45 23 -62 26
-170 27 -66 1 -132 0 -147 -3z m267 -62 c72 -33 105 -86 105 -167 0 -48 -20
-107 -48 -137 -44 -49 -153 -77 -246 -63 l-46 7 0 190 0 189 98 0 c73 0 107
-5 137 -19z"/>
</g>
</svg>
