<?xml version="1.0" standalone="no"?>
<!DOCTYPE svg PUBLIC "-//W3C//DTD SVG 20010904//EN"
 "http://www.w3.org/TR/2001/REC-SVG-20010904/DTD/svg10.dtd">
<svg version="1.0" xmlns="http://www.w3.org/2000/svg"
 width="100px" height="100px" viewBox="0 0 942.000000 760.000000"
 preserveAspectRatio="xMidYMid meet">

<g transform="translate(0.000000,760.000000) scale(0.100000,-0.100000)"
fill="#FFE600" stroke="none">
<path d="M4010 7472 c-96 -36 -142 -79 -225 -211 -21 -33 -33 -63 -30 -75 10
-44 12 -96 4 -97 -5 -1 -15 -2 -21 -3 -18 -1 -28 -17 -28 -44 0 -12 -7 -25
-15 -28 -8 -4 -15 -14 -15 -23 0 -25 -23 -71 -35 -71 -6 0 -16 5 -23 12 -9 9
-12 8 -12 -4 0 -9 9 -18 21 -21 19 -5 20 -10 14 -70 -6 -52 -4 -70 10 -91 21
-32 57 -34 85 -6 28 28 50 26 42 -2 -3 -13 -10 -26 -16 -30 -8 -5 -7 -14 2
-29 7 -11 11 -24 8 -27 -3 -3 -6 0 -6 6 0 7 -6 12 -14 12 -12 0 -14 -21 -8
-66 3 -15 68 -44 101 -44 34 0 53 20 81 85 23 54 21 126 -5 161 -9 12 -10 27
-4 48 5 17 9 64 9 105 0 90 16 148 47 169 14 10 38 28 55 42 17 13 63 33 102
43 93 24 165 16 225 -24 49 -33 66 -31 33 4 -20 21 -21 24 -5 39 9 10 17 26
18 37 1 10 7 26 14 34 10 13 8 23 -8 55 -25 49 -54 70 -146 105 -83 32 -183
35 -255 9z m355 -102 c3 -6 -1 -7 -9 -4 -18 7 -21 14 -7 14 6 0 13 -4 16 -10z
m-25 -20 c0 -5 -8 -10 -17 -10 -15 0 -16 2 -3 10 19 12 20 12 20 0z m56 -38
c-3 -2 -18 -1 -33 4 -26 7 -26 8 -5 11 12 3 22 12 23 21 0 12 3 9 10 -7 5 -13
7 -26 5 -29z m-556 -100 c-14 -2 -29 -7 -34 -12 -5 -5 -15 -6 -22 -3 -26 10
-14 22 24 25 42 4 70 -5 32 -10z m-90 -192 c0 -5 -5 -10 -11 -10 -5 0 -7 5 -4
10 3 6 8 10 11 10 2 0 4 -4 4 -10z m-44 -85 c9 -8 11 -15 6 -15 -5 0 -15 7
-22 15 -7 8 -9 15 -6 15 4 0 14 -7 22 -15z m181 -22 c-3 -3 -11 -2 -17 2 -9 6
-9 10 1 16 14 8 27 -7 16 -18z m-41 -20 c-7 -7 -26 7 -26 19 0 6 6 6 15 -2 9
-7 13 -15 11 -17z m-106 3 c0 -3 -4 -8 -10 -11 -5 -3 -10 -1 -10 4 0 6 5 11
10 11 6 0 10 -2 10 -4z m130 -46 c0 -5 -2 -10 -4 -10 -3 0 -8 5 -11 10 -3 6
-1 10 4 10 6 0 11 -4 11 -10z m27 -120 c-1 -11 -7 -20 -14 -20 -14 0 -18 22
-6 33 12 13 22 7 20 -13z m-4 -60 c3 -13 -1 -24 -14 -30 -19 -11 -28 3 -10 14
5 3 7 16 3 28 -3 13 -1 19 5 15 6 -4 13 -16 16 -27z"/>
<path d="M3707 7131 c-3 -14 -1 -18 9 -14 8 3 14 11 14 19 0 21 -17 17 -23 -5z"/>
<path d="M3674 7042 c-25 -16 -43 -72 -24 -72 6 0 10 7 10 15 0 9 7 27 16 40
17 26 17 30 -2 17z"/>
<path d="M4348 6859 c-10 -5 -36 -36 -57 -67 -22 -31 -64 -82 -95 -112 -62
-60 -68 -81 -31 -98 34 -16 50 -15 65 3 7 9 21 13 31 10 24 -8 76 44 57 57
-18 11 -30 10 -23 -3 4 -6 1 -9 -6 -8 -21 3 -49 -12 -49 -26 0 -15 -33 -26
-49 -16 -6 4 -7 18 -2 36 7 28 11 30 49 28 42 -2 51 4 32 23 -7 7 -6 11 5 11
8 0 15 -6 15 -14 0 -7 4 -13 9 -13 5 0 18 -3 28 -6 15 -6 16 -4 6 7 -20 20
-15 31 10 23 12 -3 19 -3 15 1 -9 9 10 35 25 35 6 0 7 -3 4 -7 -4 -3 1 -15 10
-25 14 -15 14 -18 2 -13 -9 3 -21 -1 -28 -9 -10 -12 -6 -13 31 -9 l43 6 -19
-22 c-11 -11 -17 -24 -13 -27 14 -15 38 50 45 124 7 71 6 82 -7 84 -32 3 -36
4 -48 11 -6 4 -19 4 -30 0 -16 -6 -16 -5 -4 10 15 19 5 22 -21 6z"/>
<path d="M4981 6720 c0 -29 1 -32 10 -17 7 11 7 23 0 35 -9 14 -10 11 -10 -18z"/>
<path d="M5051 6654 c0 -11 3 -14 6 -6 3 7 2 16 -1 19 -3 4 -6 -2 -5 -13z"/>
<path d="M4985 6618 c-5 -14 18 -78 29 -78 4 0 -8 52 -18 85 -2 6 -7 3 -11 -7z"/>
<path d="M4208 6463 c7 -3 16 -2 19 1 4 3 -2 6 -13 5 -11 0 -14 -3 -6 -6z"/>
<path d="M4810 5969 c0 -23 26 -54 34 -41 8 14 -5 50 -20 56 -9 4 -14 -2 -14
-15z"/>
<path d="M4820 5875 c0 -8 -5 -24 -12 -34 -10 -16 -9 -26 5 -53 9 -18 18 -62
20 -98 4 -59 19 -123 48 -205 6 -16 13 -50 15 -74 3 -44 34 -106 42 -83 6 18
22 15 22 -4 0 -14 -7 -16 -45 -11 -36 5 -45 4 -45 -8 0 -8 9 -15 21 -15 30 0
109 21 115 31 3 5 -3 6 -12 2 -14 -5 -16 -2 -11 23 5 24 -3 129 -26 354 -3 24
-4 17 -5 -20 -2 -49 -4 -55 -25 -56 -12 -1 -29 -4 -37 -5 -19 -5 -21 40 -2 60
10 11 10 15 -4 26 -9 6 -14 17 -10 23 11 18 26 14 20 -5 -5 -16 -4 -16 10 1
13 16 13 20 -5 40 -20 21 -21 21 -35 2 -16 -23 -19 -4 -4 24 6 12 7 21 0 25
-5 3 -7 12 -3 20 3 8 0 15 -6 15 -6 0 -11 9 -11 20 0 11 -4 20 -10 20 -5 0
-10 -7 -10 -15z m140 -292 c0 -13 -3 -14 -12 -5 -15 15 -32 16 -23 2 11 -17
-5 -32 -21 -19 -26 21 -16 39 21 39 26 0 35 -4 35 -17z m-40 -87 c0 -3 -4 -8
-10 -11 -5 -3 -10 -1 -10 4 0 6 5 11 10 11 6 0 10 -2 10 -4z"/>
<path d="M5233 4784 c-3 -9 -13 -14 -24 -11 -11 3 -17 1 -14 -3 3 -5 1 -11 -4
-14 -5 -3 -12 -22 -15 -41 -8 -40 -28 -54 -70 -50 -36 4 -86 -31 -86 -60 0
-14 -10 -26 -25 -33 -14 -6 -25 -17 -25 -23 0 -13 -40 -48 -56 -49 -6 0 -17
-13 -23 -28 -10 -23 -9 -38 3 -73 9 -27 10 -38 3 -29 -15 19 -91 20 -108 3 -7
-7 -17 -13 -22 -13 -12 0 -37 -26 -37 -39 0 -6 -6 -11 -12 -11 -7 0 -24 -9
-37 -19 -14 -10 -32 -17 -40 -14 -10 3 -12 2 -5 -4 6 -4 13 -13 15 -20 2 -6
36 17 77 53 40 35 79 64 87 64 18 0 19 -12 3 -28 -7 -7 -14 -17 -14 -22 -1 -6
-2 -14 -3 -19 0 -5 -17 -15 -36 -22 -23 -9 -31 -16 -22 -21 8 -5 7 -8 -6 -8
-9 0 -27 -12 -40 -27 -69 -83 -86 -95 -122 -91 -29 3 -35 1 -35 -14 0 -22 23
-33 48 -23 46 20 120 16 107 -5 -5 -8 -11 -7 -21 1 -12 10 -18 9 -32 -6 -9
-10 -11 -15 -4 -11 17 10 72 -15 72 -33 0 -8 -6 -11 -16 -7 -10 4 -14 1 -12
-6 3 -7 13 -15 24 -17 18 -3 43 -28 44 -43 0 -5 -9 -8 -21 -8 -21 0 -21 0 2
-20 l24 -19 -32 -7 c-32 -6 -51 -33 -38 -54 3 -6 17 -7 29 -4 17 4 25 0 30
-13 11 -26 9 -28 -29 -24 -41 3 -56 -4 -49 -24 4 -10 11 -12 23 -5 10 5 31 8
48 8 36 -1 53 8 53 28 0 19 7 18 36 -5 17 -13 21 -22 13 -26 -6 -4 -15 -1 -20
6 -4 7 -11 10 -16 6 -4 -5 -1 -12 6 -16 8 -5 10 -14 6 -21 -5 -9 -4 -11 3 -6
15 9 15 4 0 -31 -6 -15 -10 -32 -9 -36 0 -4 -4 -17 -10 -29 -8 -15 -8 -22 1
-28 13 -8 6 -49 -24 -145 l-15 -50 35 40 c19 22 42 47 50 57 9 9 22 46 31 82
12 56 18 66 36 66 16 0 18 3 8 9 -11 7 -9 15 10 40 12 17 27 31 32 31 5 0 7 9
4 20 -3 10 0 21 7 23 11 4 46 -29 46 -45 0 -4 7 -8 15 -8 12 0 13 5 4 26 -8
24 -8 25 6 14 8 -7 24 -10 35 -7 25 6 26 -1 3 -19 -16 -12 -15 -13 12 -11 16
1 39 11 51 22 20 19 21 23 7 48 -8 15 -11 36 -8 46 3 12 0 21 -10 25 -19 7
-20 26 0 26 8 0 15 -4 15 -10 0 -12 42 -8 53 5 6 7 10 6 13 -1 5 -13 44 -7 44
7 0 10 -85 23 -99 14 -6 -3 -11 -1 -11 4 0 6 -7 11 -16 11 -8 0 -13 4 -10 9 3
5 -1 12 -9 15 -13 4 -14 10 -5 26 9 17 8 19 -7 13 -21 -8 -67 -56 -103 -108
-14 -20 -45 -62 -70 -94 -25 -32 -50 -67 -56 -77 -7 -11 -15 -16 -19 -12 -7 7
7 59 30 113 11 25 29 148 26 180 -6 85 -5 154 2 168 7 16 6 16 -11 6 -14 -9
-24 -9 -38 -1 -18 11 -18 11 3 12 24 0 43 22 25 28 -21 7 -13 31 18 53 16 12
27 25 25 30 -3 4 5 7 18 7 60 -1 186 16 181 23 -3 5 10 9 28 9 29 0 112 14
234 38 22 5 46 12 52 16 15 9 16 36 1 36 -5 0 -7 5 -4 10 3 6 -1 10 -9 10 -9
0 -16 5 -16 11 0 7 10 9 24 5 14 -3 27 -2 30 3 9 13 -35 21 -56 10 -12 -7 -18
-6 -18 1 0 6 11 15 25 20 29 11 32 25 9 34 -9 3 -14 13 -11 20 5 11 -8 18 -49
26 -59 12 -65 24 -13 22 29 -1 30 0 15 17 -28 31 -18 43 17 18 17 -13 41 -27
51 -31 10 -3 16 -9 13 -13 -11 -10 14 -33 34 -33 11 0 19 -4 19 -10 0 -5 10
-10 22 -10 12 0 29 -7 39 -16 10 -9 23 -14 29 -12 15 5 -48 78 -68 78 -18 0
-65 26 -102 57 -69 56 -96 79 -103 90 -27 43 -82 59 -94 27z m162 -214 c3 -6
-1 -7 -9 -4 -18 7 -21 14 -7 14 6 0 13 -4 16 -10z m-495 -230 c0 -5 -4 -10
-10 -10 -5 0 -10 5 -10 10 0 6 5 10 10 10 6 0 10 -4 10 -10z m-13 -176 c-3 -3
-12 -4 -19 -1 -8 3 -5 6 6 6 11 1 17 -2 13 -5z m1 -48 c-1 -27 -4 -32 -20 -28
-14 3 -17 10 -12 26 6 17 21 35 31 36 1 0 2 -15 1 -34z m-8 -58 c0 -6 -8 -8
-19 -5 -12 3 -18 -1 -17 -11 0 -9 -7 -18 -16 -20 -22 -4 -23 16 -2 39 15 17
54 15 54 -3z m-115 -8 c8 -13 -5 -13 -25 0 -13 8 -13 10 2 10 9 0 20 -4 23
-10z m125 -20 c0 -5 -7 -10 -16 -10 -8 0 -12 5 -9 10 3 6 10 10 16 10 5 0 9
-4 9 -10z m-42 -66 c13 -4 22 -14 22 -25 0 -25 -8 -24 -36 6 -24 26 -23 28 14
19z m-131 -86 c-3 -8 -6 -5 -6 6 -1 11 2 17 5 13 3 -3 4 -12 1 -19z m403 1 c0
-5 -7 -9 -15 -9 -9 0 -12 6 -9 15 6 15 24 11 24 -6z m-273 -46 c-3 -3 -11 -2
-17 2 -9 6 -9 10 1 16 14 8 27 -7 16 -18z m178 9 c-3 -3 -11 0 -18 7 -9 10 -8
11 6 5 10 -3 15 -9 12 -12z m115 -33 c0 -5 -5 -9 -11 -9 -5 0 -7 -4 -4 -10 3
-5 2 -10 -3 -10 -5 0 -12 11 -14 24 -4 19 -1 22 14 18 10 -2 18 -8 18 -13z"/>
<path d="M5567 4504 c-15 -8 -25 -19 -22 -25 4 -6 13 -5 25 1 10 5 23 10 28
10 9 0 36 -47 37 -65 0 -5 4 -16 9 -23 4 -7 6 -16 3 -19 -9 -9 -27 7 -27 24 0
13 -8 15 -41 10 -52 -7 -58 -14 -31 -33 12 -8 20 -20 17 -25 -4 -5 -3 -9 2 -9
4 0 16 -14 25 -30 9 -17 23 -30 30 -30 21 0 15 -78 -8 -95 -10 -8 -25 -15 -31
-15 -7 0 -13 -4 -13 -10 0 -5 -7 -10 -15 -10 -17 0 -20 -16 -5 -25 6 -3 13 0
16 8 3 8 19 14 37 14 18 1 26 -1 20 -4 -16 -6 -17 -35 -1 -51 9 -9 9 -12 -1
-12 -7 0 -11 -6 -8 -15 4 -8 1 -17 -5 -21 -7 -4 -8 -3 -4 4 4 7 1 12 -9 12
-22 0 -55 -18 -55 -30 0 -6 8 -5 19 2 15 9 24 8 46 -6 22 -14 25 -20 14 -27
-8 -5 -25 -9 -39 -10 -21 0 -22 -2 -7 -8 17 -6 17 -8 4 -20 -9 -6 -28 -13 -44
-14 -19 -2 -29 -9 -31 -22 -8 -47 -61 -53 -81 -9 -9 20 -8 24 7 25 11 0 12 2
4 6 -7 3 -19 0 -26 -7 -11 -9 -16 -7 -21 9 -3 12 -11 21 -16 21 -12 0 -11 -7
1 -31 8 -15 7 -19 -4 -19 -8 0 -17 4 -21 10 -3 5 -13 6 -21 3 -11 -4 -15 0
-14 13 4 37 0 38 -19 4 -17 -31 -17 -39 -5 -68 7 -18 9 -30 4 -27 -5 3 -11 1
-15 -5 -3 -5 3 -10 13 -10 11 0 22 -6 25 -14 6 -15 54 -19 63 -5 3 5 -2 9 -10
9 -19 0 -21 11 -5 27 8 8 4 15 -17 27 l-29 16 35 -2 c23 -2 34 -8 32 -16 -1
-8 2 -11 7 -8 5 3 15 -2 22 -11 11 -13 11 -17 2 -20 -7 -3 -13 -9 -13 -13 0
-5 20 4 44 20 24 17 47 30 51 30 3 0 36 21 73 46 59 41 113 91 176 162 25 28
13 29 -13 1 -11 -12 -24 -18 -30 -14 -18 11 -12 37 9 42 11 3 20 9 20 13 0 8
-36 6 -69 -5 -19 -6 -21 -2 -21 28 0 36 35 91 51 81 6 -3 -2 -16 -16 -29 -25
-24 -25 -24 -5 -35 17 -9 20 -8 20 9 0 26 29 36 45 14 8 -10 17 -15 20 -11 12
12 -4 40 -25 45 -11 3 -20 11 -20 18 0 8 -3 21 -7 31 -5 14 -3 16 11 11 25
-10 40 2 25 19 -15 19 -6 28 20 19 12 -3 21 -15 21 -26 0 -10 5 -19 10 -19 15
0 12 32 -5 54 -8 10 -12 23 -9 28 3 5 1 7 -4 6 -13 -4 -92 64 -92 80 0 6 -7
12 -15 12 -8 0 -15 5 -15 11 0 13 -30 38 -45 38 -5 0 -23 -7 -38 -15z m123
-103 c0 -5 7 -17 16 -25 16 -16 8 -22 -12 -8 -15 10 -25 42 -14 42 6 0 10 -4
10 -9z m-90 -21 c13 -13 15 -20 7 -20 -14 0 -37 20 -37 32 0 13 9 9 30 -12z
m84 -76 c9 -24 0 -29 -18 -11 -8 8 -12 17 -9 21 11 10 21 7 27 -10z m-354
-424 c0 -5 -7 -7 -15 -4 -8 4 -15 8 -15 10 0 2 7 4 15 4 8 0 15 -4 15 -10z
m120 6 c0 -3 -4 -8 -10 -11 -5 -3 -10 -1 -10 4 0 6 5 11 10 11 6 0 10 -2 10
-4z"/>
<path d="M5670 4506 c0 -2 8 -10 18 -17 15 -13 16 -12 3 4 -13 16 -21 21 -21
13z"/>
<path d="M5585 4450 c-3 -5 1 -10 9 -10 9 0 16 5 16 10 0 6 -4 10 -9 10 -6 0
-13 -4 -16 -10z"/>
<path d="M5730 4436 c0 -2 8 -10 18 -17 15 -13 16 -12 3 4 -13 16 -21 21 -21
13z"/>
<path d="M3146 4365 c27 -36 27 -72 -1 -61 -11 4 -15 -2 -15 -23 0 -33 52
-239 81 -324 11 -32 20 -72 18 -90 -6 -90 18 -135 64 -123 25 6 27 10 26 59 0
28 -4 61 -8 72 -8 19 -8 19 -20 -3 -6 -12 -18 -22 -26 -22 -15 0 -20 13 -31
75 -4 22 -11 49 -17 59 -12 24 -38 130 -41 171 -2 17 -8 43 -15 59 -9 21 -9
32 -1 40 13 13 40 -17 40 -45 0 -10 4 -20 9 -23 5 -3 12 -23 16 -43 4 -21 10
-42 15 -48 4 -5 11 -23 15 -40 4 -16 9 -25 12 -18 2 7 -5 43 -17 80 -11 37
-28 93 -37 123 -25 90 -63 160 -85 160 -5 0 3 -16 18 -35z"/>
<path d="M5310 4350 c0 -5 5 -10 10 -10 6 0 10 5 10 10 0 6 -4 10 -10 10 -5 0
-10 -4 -10 -10z"/>
<path d="M5230 4320 c-9 -6 -10 -10 -3 -10 6 0 15 5 18 10 8 12 4 12 -15 0z"/>
<path d="M5298 4292 c61 -19 69 -43 22 -67 -16 -9 -30 -19 -30 -24 0 -5 -13
-14 -29 -20 -59 -25 -100 -127 -61 -151 20 -12 26 -4 10 15 -10 12 -10 15 4
15 9 0 16 -4 16 -9 0 -5 9 -7 20 -4 20 5 28 23 10 23 -5 0 -10 4 -10 10 0 5
11 9 25 8 16 -2 25 -8 25 -19 0 -21 26 -44 34 -30 3 5 0 12 -6 14 -7 3 -8 6
-3 6 16 1 41 -20 30 -25 -5 -2 -17 -9 -25 -14 -13 -9 -13 -11 0 -19 16 -11 50
13 50 36 0 7 5 13 10 13 6 0 10 4 10 9 0 4 -12 7 -27 5 -16 -2 -20 -1 -10 2 9
3 17 9 17 14 0 12 -28 20 -47 13 -9 -4 -14 -2 -10 3 3 6 2 16 -4 24 -6 11 -9
12 -9 2 0 -9 -7 -11 -19 -7 -13 4 -25 -2 -39 -19 -21 -27 -32 -25 -32 6 0 11
11 23 25 28 14 5 35 19 47 30 12 11 30 20 39 20 10 0 20 9 24 20 3 10 19 30
35 43 30 26 30 37 -2 37 -10 0 -18 7 -18 18 0 11 -3 13 -8 5 -5 -9 -19 -9 -47
-3 -64 15 -75 10 -17 -8z"/>
<path d="M4483 4263 c-7 -2 -13 -14 -13 -26 0 -19 6 -22 52 -25 28 -1 56 -6
63 -12 8 -7 10 -2 7 20 -3 24 -11 32 -41 40 -39 11 -49 11 -68 3z"/>
<path d="M5778 4263 c6 -2 10 -9 6 -14 -3 -5 2 -9 12 -9 13 0 14 3 4 15 -7 8
-18 15 -24 14 -7 0 -6 -2 2 -6z"/>
<path d="M5415 4220 c3 -5 8 -10 11 -10 2 0 4 5 4 10 0 6 -5 10 -11 10 -5 0
-7 -4 -4 -10z"/>
<path d="M5382 4128 c2 -6 10 -14 16 -16 7 -2 10 2 6 12 -7 18 -28 22 -22 4z"/>
<path d="M5425 4130 c-3 -5 -1 -10 4 -10 6 0 11 -7 11 -17 0 -14 2 -14 20 2
11 10 20 22 20 27 0 11 -48 10 -55 -2z"/>
<path d="M5534 4105 c15 -8 38 -15 49 -15 20 0 20 0 1 15 -10 8 -32 14 -49 15
l-30 0 29 -15z"/>
<path d="M5465 4050 c-5 -9 18 -20 41 -20 8 0 14 6 14 14 0 14 -47 19 -55 6z"/>
<path d="M4560 4030 c0 -5 7 -10 15 -10 8 0 15 5 15 10 0 6 -7 10 -15 10 -8 0
-15 -4 -15 -10z"/>
<path d="M4637 4034 c-8 -8 1 -24 14 -24 5 0 9 7 9 15 0 15 -12 20 -23 9z"/>
<path d="M5280 4030 c0 -5 7 -10 16 -10 8 0 12 5 9 10 -3 6 -10 10 -16 10 -5
0 -9 -4 -9 -10z"/>
<path d="M5560 4023 c-8 -2 -22 -7 -30 -9 -12 -4 -12 -7 -1 -13 13 -9 61 8 61
22 0 8 -7 8 -30 0z"/>
<path d="M3260 3995 c0 -14 4 -25 9 -25 6 0 11 -15 13 -32 2 -18 8 -31 13 -28
6 3 8 10 6 15 -2 6 -8 29 -14 53 -11 46 -27 56 -27 17z"/>
<path d="M5240 4000 c0 -13 20 -13 40 0 12 8 9 10 -12 10 -16 0 -28 -4 -28
-10z"/>
<path d="M5394 3995 c8 -8 17 -15 19 -15 3 0 7 7 11 15 4 11 -2 15 -20 15 -23
0 -24 -2 -10 -15z"/>
<path d="M4630 3990 c0 -5 5 -10 11 -10 5 0 7 5 4 10 -3 6 -8 10 -11 10 -2 0
-4 -4 -4 -10z"/>
<path d="M4469 3955 c-3 -22 -3 -80 0 -130 6 -84 7 -88 20 -65 15 27 16 117 1
135 -5 6 -10 31 -12 55 l-3 45 -6 -40z"/>
<path d="M4635 3940 c-3 -5 1 -10 9 -10 9 0 16 5 16 10 0 6 -4 10 -9 10 -6 0
-13 -4 -16 -10z"/>
<path d="M4575 3910 c-3 -5 -1 -10 4 -10 6 0 11 5 11 10 0 6 -2 10 -4 10 -3 0
-8 -4 -11 -10z"/>
<path d="M5175 3860 c-3 -5 -1 -10 4 -10 6 0 11 5 11 10 0 6 -2 10 -4 10 -3 0
-8 -4 -11 -10z"/>
<path d="M5240 3839 c0 -14 5 -19 15 -16 8 4 17 2 20 -3 8 -13 25 -13 25 0 0
5 -13 16 -30 25 -29 15 -30 15 -30 -6z"/>
<path d="M2590 3830 c-8 -5 -12 -12 -9 -15 4 -3 12 1 19 10 14 17 11 19 -10 5z"/>
<path d="M5190 3825 c0 -10 7 -15 18 -13 21 4 19 22 -2 26 -10 2 -16 -3 -16
-13z"/>
<path d="M4592 3789 c2 -7 10 -15 17 -17 8 -3 12 1 9 9 -2 7 -10 15 -17 17 -8
3 -12 -1 -9 -9z"/>
<path d="M5200 3791 c0 -5 5 -13 10 -16 6 -3 10 -2 10 4 0 5 -4 13 -10 16 -5
3 -10 2 -10 -4z"/>
<path d="M4760 3759 c8 -26 6 -35 -8 -45 -9 -7 -25 -14 -34 -14 -10 0 -18 -4
-18 -10 0 -14 8 -13 57 11 40 19 57 39 33 39 -5 0 -9 10 -7 22 1 14 -4 23 -15
26 -15 3 -16 -1 -8 -29z"/>
<path d="M5185 3750 c-3 -5 -15 -10 -26 -10 -26 0 -24 -15 6 -34 25 -17 26
-17 19 9 -6 25 10 37 19 13 4 -10 7 -10 18 0 12 11 12 14 -1 22 -19 12 -27 12
-35 0z"/>
<path d="M5083 3736 c9 -7 17 -18 17 -25 0 -6 5 -11 10 -11 18 0 11 29 -9 40
-28 14 -39 12 -18 -4z"/>
<path d="M4998 3721 c-16 -19 -14 -31 4 -31 5 0 6 5 3 10 -3 6 3 10 15 10 12
0 20 5 18 12 -7 20 -22 19 -40 -1z"/>
<path d="M4471 3704 c0 -11 3 -14 6 -6 3 7 2 16 -1 19 -3 4 -6 -2 -5 -13z"/>
<path d="M5105 3693 c-19 -5 -35 -20 -35 -34 0 -13 52 -20 66 -8 8 6 14 8 14
3 0 -4 5 -3 12 4 8 8 8 15 -2 27 -13 15 -20 16 -55 8z"/>
<path d="M5030 3670 c0 -5 5 -10 10 -10 6 0 10 5 10 10 0 6 -4 10 -10 10 -5 0
-10 -4 -10 -10z"/>
<path d="M4730 3660 c36 -25 50 -31 50 -20 0 5 -7 10 -15 10 -8 0 -15 5 -15
10 0 6 -8 10 -17 10 -16 0 -16 -2 -3 -10z"/>
<path d="M4968 3663 c-24 -6 -23 -33 1 -33 14 0 19 -6 18 -20 -1 -22 -17 -26
-34 -9 -8 8 -13 7 -18 -1 -4 -6 -3 -16 2 -21 11 -11 113 0 113 12 0 5 -6 9
-13 9 -19 0 -42 41 -27 50 8 5 7 9 -5 14 -9 3 -17 5 -18 5 -1 -1 -10 -3 -19
-6z"/>
<path d="M4454 3633 c-3 -10 -12 -35 -20 -56 -21 -55 -17 -92 11 -124 21 -24
26 -26 35 -13 7 11 5 19 -11 33 -15 12 -18 21 -11 30 14 18 25 134 12 142 -5
3 -13 -2 -16 -12z"/>
<path d="M5042 3638 c-7 -9 -5 -19 8 -35 17 -21 18 -21 34 -4 20 22 21 32 1
25 -9 -4 -15 0 -15 10 0 19 -14 21 -28 4z"/>
<path d="M4510 3576 c0 -2 7 -7 16 -10 8 -3 12 -2 9 4 -6 10 -25 14 -25 6z"/>
<path d="M5086 3571 c-4 -7 -14 -10 -21 -7 -7 2 -22 -2 -34 -10 -14 -10 -21
-11 -21 -4 0 17 -33 8 -36 -10 -8 -38 -11 -46 -22 -67 -7 -12 -12 -28 -12 -37
0 -8 -6 -16 -12 -19 -10 -3 -10 -7 -1 -17 17 -18 34 -3 29 26 -3 14 -1 22 5
19 5 -4 6 -12 2 -18 -4 -7 2 -5 13 3 27 21 74 68 74 73 0 3 -16 4 -35 1 -20
-2 -35 0 -35 6 0 5 6 10 13 11 6 1 27 2 46 4 36 3 66 26 59 46 -3 10 -6 11
-12 0z"/>
<path d="M4605 3560 c3 -5 8 -10 11 -10 2 0 4 5 4 10 0 6 -5 10 -11 10 -5 0
-7 -4 -4 -10z"/>
<path d="M4898 3553 c7 -3 16 -2 19 1 4 3 -2 6 -13 5 -11 0 -14 -3 -6 -6z"/>
<path d="M4867 3529 c-4 -15 -2 -19 10 -15 8 3 17 6 19 6 10 0 3 18 -10 23 -8
3 -16 -2 -19 -14z"/>
<path d="M4938 3533 c7 -3 16 -2 19 1 4 3 -2 6 -13 5 -11 0 -14 -3 -6 -6z"/>
<path d="M4670 3490 c-9 -6 -10 -10 -3 -10 6 0 15 5 18 10 8 12 4 12 -15 0z"/>
<path d="M4718 3456 c-34 -43 -36 -57 -4 -27 19 18 42 61 33 61 -1 0 -14 -16
-29 -34z"/>
<path d="M4478 3378 c-5 -104 -7 -126 -13 -156 -6 -28 -3 -36 20 -58 23 -21
26 -29 20 -64 -4 -23 -3 -40 2 -40 6 0 14 25 20 55 8 44 7 59 -5 76 -9 13 -13
34 -9 59 3 25 1 40 -6 43 -7 2 1 15 17 30 l29 27 -31 0 c-29 0 -31 2 -27 30 2
17 -1 30 -6 30 -5 0 -10 -15 -11 -32z"/>
<path d="M4881 3381 c-23 -6 -23 -7 -7 -23 16 -16 18 -16 36 0 11 9 20 17 20
18 0 7 -29 10 -49 5z"/>
<path d="M4601 3341 c-25 -25 -38 -88 -22 -104 15 -14 32 11 42 58 4 17 10 38
14 48 10 23 -10 22 -34 -2z"/>
<path d="M4825 3340 c-4 -6 3 -10 14 -10 25 0 27 6 6 13 -8 4 -17 2 -20 -3z"/>
<path d="M4770 3259 c0 -5 5 -7 10 -4 6 3 10 8 10 11 0 2 -4 4 -10 4 -5 0 -10
-5 -10 -11z"/>
<path d="M4810 3221 c0 -8 -7 -10 -20 -6 -11 4 -20 2 -20 -4 0 -6 5 -11 11
-11 6 0 8 -9 4 -20 -3 -11 -4 -20 -1 -20 8 0 37 63 31 68 -3 3 -5 0 -5 -7z"/>
<path d="M4585 3210 c-3 -5 -1 -10 4 -10 6 0 11 5 11 10 0 6 -2 10 -4 10 -3 0
-8 -4 -11 -10z"/>
<path d="M4752 3128 c-7 -7 -12 -18 -12 -25 0 -7 -5 -13 -11 -13 -5 0 -7 -5
-4 -11 4 -5 0 -18 -8 -27 -8 -9 -20 -38 -28 -64 -14 -49 -36 -69 -51 -46 -5 9
-8 4 -8 -14 0 -16 5 -28 10 -28 6 0 10 -5 10 -11 0 -7 -9 -9 -21 -6 -15 4 -23
0 -26 -14 -3 -10 -9 -19 -14 -19 -5 0 -6 -7 -3 -15 4 -8 11 -15 16 -15 21 0
89 86 99 125 6 22 19 58 29 80 43 100 50 131 22 103z"/>
<path d="M3582 2850 c0 -14 2 -19 5 -12 2 6 2 18 0 25 -3 6 -5 1 -5 -13z"/>
<path d="M4516 2847 c3 -10 9 -15 12 -12 3 3 0 11 -7 18 -10 9 -11 8 -5 -6z"/>
<path d="M3582 2738 c-1 -15 -7 -30 -13 -33 -6 -4 -8 -13 -5 -21 10 -27 -34
-94 -78 -116 -37 -19 -55 -21 -186 -18 -80 1 -161 2 -180 0 -19 -1 -44 -2 -55
-2 -11 1 -101 4 -200 8 -155 6 -183 9 -204 25 -22 18 -26 18 -47 4 -26 -17
-66 -12 -85 11 -16 19 -26 18 -32 -6 -6 -24 25 -45 54 -37 11 3 34 1 52 -5 54
-17 80 -18 467 -18 233 0 378 4 384 10 6 6 25 10 43 10 23 0 37 7 48 23 23 36
47 125 42 160 -3 29 -4 29 -5 5z"/>
<path d="M4311 2622 c-12 -17 -21 -36 -21 -44 0 -10 2 -10 9 1 12 18 83 51 95
44 5 -3 7 0 4 8 -2 8 -18 15 -35 17 -25 2 -35 -3 -52 -26z"/>
<path d="M4267 2464 c-3 -40 -16 -92 -31 -125 -13 -31 -28 -74 -31 -95 -4 -22
-15 -45 -24 -53 -14 -12 -14 -13 4 -7 23 9 24 9 51 7 25 -1 43 -18 124 -119
37 -46 71 -79 78 -77 7 3 23 -5 36 -18 42 -42 69 -55 94 -44 23 10 27 23 16
51 -10 25 -22 19 -16 -9 3 -19 0 -25 -12 -25 -10 0 -14 5 -11 10 3 6 1 10 -5
10 -6 0 -8 10 -5 23 4 13 -3 46 -14 75 -18 45 -21 75 -21 196 0 122 -2 145
-16 150 -22 8 -24 8 -24 -7 0 -8 -9 -22 -20 -32 -11 -10 -20 -15 -20 -11 0 4
-9 2 -21 -4 -15 -8 -24 -8 -34 0 -15 12 -35 6 -35 -11 0 -6 5 -7 10 -4 6 3 10
2 10 -4 0 -5 -6 -12 -12 -14 -8 -3 -6 -6 5 -6 9 -1 17 -5 17 -11 0 -16 -27
-12 -45 6 -19 19 -33 11 -16 -9 9 -11 5 -14 -19 -15 -17 0 -30 3 -30 7 0 10
31 41 64 65 31 23 33 33 5 41 -18 6 -19 9 -6 28 7 12 16 32 20 45 4 19 3 21
-8 12 -17 -14 -34 -5 -44 23 -6 14 -10 0 -14 -49z m43 -79 c0 -1 -9 -5 -19 -8
-13 -3 -18 -1 -14 9 4 10 33 10 33 -1z m142 -37 c-7 -7 -12 -8 -12 -2 0 14 12
26 19 19 2 -3 -1 -11 -7 -17z m18 -109 c0 -11 -3 -11 -24 -3 -23 9 -20 23 4
17 11 -3 20 -9 20 -14z m-10 -159 c0 -5 -2 -10 -4 -10 -3 0 -8 5 -11 10 -3 6
-1 10 4 10 6 0 11 -4 11 -10z"/>
<path d="M4382 2518 c5 -15 28 -23 28 -10 0 5 -7 13 -16 16 -10 4 -14 1 -12
-6z"/>
<path d="M2341 2504 c0 -11 3 -14 6 -6 3 7 2 16 -1 19 -3 4 -6 -2 -5 -13z"/>
<path d="M3005 2500 c-3 -5 -1 -10 4 -10 6 0 11 5 11 10 0 6 -2 10 -4 10 -3 0
-8 -4 -11 -10z"/>
<path d="M4352 2478 c-16 -16 -15 -28 3 -28 8 0 15 9 15 20 0 23 -2 24 -18 8z"/>
<path d="M4390 2470 c0 -5 7 -7 15 -4 8 4 15 8 15 10 0 2 -7 4 -15 4 -8 0 -15
-4 -15 -10z"/>
<path d="M2870 2440 c-11 -7 -5 -10 23 -10 20 0 37 5 37 10 0 13 -40 13 -60 0z"/>
<path d="M4376 2443 c-11 -12 -6 -23 12 -24 9 -1 4 -4 -13 -8 l-30 -7 27 -18
c26 -17 28 -17 54 1 22 14 25 19 11 21 -9 2 -17 7 -17 12 0 12 -36 31 -44 23z"/>
<path d="M2433 2423 c9 -2 23 -2 30 0 6 3 -1 5 -18 5 -16 0 -22 -2 -12 -5z"/>
<path d="M2790 2327 c-62 -23 -128 -76 -164 -130 -79 -121 -115 -253 -121
-457 -5 -139 7 -199 55 -285 38 -66 73 -98 144 -131 51 -23 68 -26 130 -22
160 11 286 128 335 313 22 86 43 279 36 339 -22 185 -71 287 -168 344 -48 29
-68 34 -134 38 -51 3 -90 0 -113 -9z m160 -67 c0 -5 -2 -10 -4 -10 -3 0 -8 5
-11 10 -3 6 -1 10 4 10 6 0 11 -4 11 -10z m-27 -135 c9 -8 18 -28 22 -45 10
-47 21 -221 14 -225 -3 -3 -9 -41 -13 -86 -15 -183 -84 -279 -157 -220 -23 18
-24 27 -27 150 -4 152 8 249 44 344 34 88 79 120 117 82z m77 -135 c0 -5 -7
-10 -15 -10 -8 0 -15 5 -15 10 0 6 7 10 15 10 8 0 15 -4 15 -10z m4 -156 c3
-8 2 -12 -4 -9 -6 3 -10 10 -10 16 0 14 7 11 14 -7z m-4 -34 c0 -5 -6 -10 -14
-10 -8 0 -18 5 -21 10 -3 6 3 10 14 10 12 0 21 -4 21 -10z m140 -19 c0 -16 -7
-35 -16 -42 -15 -12 -16 -11 -10 9 5 13 3 22 -3 22 -8 0 -7 7 1 20 18 28 28
25 28 -9z m-140 -101 c0 -5 -9 -10 -21 -10 -11 0 -17 5 -14 10 3 6 13 10 21
10 8 0 14 -4 14 -10z m144 -16 c9 -23 7 -34 -5 -34 -6 0 -9 7 -6 14 4 10 1 13
-9 9 -10 -4 -12 0 -8 11 8 20 20 21 28 0z m-556 -5 c-2 -6 -8 -10 -13 -10 -5
0 -11 4 -13 10 -2 6 4 11 13 11 9 0 15 -5 13 -11z m482 -19 c0 -18 -3 -19 -21
-9 -17 9 -19 13 -8 20 22 14 29 11 29 -11z m-25 -40 c-3 -5 -10 -10 -16 -10
-5 0 -9 5 -9 10 0 6 7 10 16 10 8 0 12 -4 9 -10z m-465 -15 c0 -8 -4 -15 -10
-15 -5 0 -10 7 -10 15 0 8 5 15 10 15 6 0 10 -7 10 -15z m560 5 c0 -5 -4 -10
-10 -10 -5 0 -10 5 -10 10 0 6 5 10 10 10 6 0 10 -4 10 -10z m-560 -106 c0
-14 -4 -23 -10 -19 -5 3 -10 15 -10 26 0 10 5 19 10 19 6 0 10 -12 10 -26z
m160 -10 c0 -17 -26 -19 -36 -3 -7 12 15 31 28 23 4 -3 8 -12 8 -20z m262 15
c16 -9 18 -13 7 -19 -14 -9 -49 5 -49 20 0 13 17 13 42 -1z m55 -11 c-3 -8 -6
-5 -6 6 -1 11 2 17 5 13 3 -3 4 -12 1 -19z m-157 -48 c0 -5 -4 -10 -10 -10 -5
0 -10 5 -10 10 0 6 5 10 10 10 6 0 10 -4 10 -10z"/>
<path d="M1881 2309 c-5 -13 -15 -157 -21 -319 -6 -162 -15 -358 -21 -435 -6
-77 -9 -165 -7 -195 l3 -55 145 3 c80 2 217 9 305 15 l160 12 7 120 c6 102 4
122 -9 132 -11 9 -60 10 -185 6 l-170 -6 6 154 c7 168 12 272 22 450 3 65 2
119 -3 122 -4 3 -57 9 -115 13 -107 7 -107 7 -117 -17z m77 -661 c-6 -18 -28
-21 -28 -4 0 9 7 16 16 16 9 0 14 -5 12 -12z m207 -198 c3 -5 1 -10 -4 -10 -6
0 -11 5 -11 10 0 6 2 10 4 10 3 0 8 -4 11 -10z"/>
<path d="M5682 2317 c-16 -19 -26 -132 -42 -490 -6 -133 -10 -305 -8 -382 l3
-140 125 0 125 0 2 120 c2 85 -1 121 -10 127 -9 6 -9 10 1 20 16 16 16 45 0
51 -10 3 -10 7 -2 18 6 8 14 61 17 119 4 58 14 205 22 328 8 123 13 228 10
233 -10 15 -231 11 -243 -4z m65 -36 c-5 -27 -40 -101 -49 -101 -4 0 -5 -7 -2
-15 4 -8 1 -15 -5 -15 -8 0 -11 22 -10 68 1 37 3 70 5 73 2 3 17 6 33 6 22 0
30 -5 28 -16z m43 9 c0 -5 -4 -10 -10 -10 -5 0 -10 5 -10 10 0 6 5 10 10 10 6
0 10 -4 10 -10z m-87 -198 c-1 -20 -5 -80 -8 -132 -4 -52 -7 -103 -7 -112 0
-10 -4 -18 -10 -18 -6 0 -8 30 -4 88 3 48 6 93 6 100 0 6 0 32 0 57 -2 44 7
72 18 61 3 -4 5 -23 5 -44z m-23 -324 c0 -13 -5 -30 -10 -38 -7 -11 -10 -5
-10 23 0 20 5 37 10 37 6 0 10 -10 10 -22z m170 -77 c0 -5 -7 -11 -14 -14 -10
-4 -13 -1 -9 9 6 15 23 19 23 5z m-45 -81 c3 -5 2 -10 -4 -10 -5 0 -13 5 -16
10 -3 6 -2 10 4 10 5 0 13 -4 16 -10z m45 -30 c0 -5 -5 -10 -11 -10 -5 0 -7 5
-4 10 3 6 8 10 11 10 2 0 4 -4 4 -10z m-20 -54 c0 -3 -4 -8 -10 -11 -5 -3 -10
-1 -10 4 0 6 5 11 10 11 6 0 10 -2 10 -4z m45 -56 c3 -5 -1 -10 -10 -10 -9 0
-13 5 -10 10 3 6 8 10 10 10 2 0 7 -4 10 -10z m-35 -40 c0 -5 -4 -10 -10 -10
-5 0 -10 5 -10 10 0 6 5 10 10 10 6 0 10 -4 10 -10z m10 -45 c0 -8 -4 -15 -10
-15 -5 0 -10 7 -10 15 0 8 5 15 10 15 6 0 10 -7 10 -15z"/>
<path d="M6850 2321 l-55 -6 -8 -50 c-4 -27 -16 -201 -28 -385 -11 -184 -24
-384 -29 -445 -6 -75 -5 -114 2 -122 15 -19 241 -18 257 0 6 8 12 81 13 193
l3 179 53 18 c29 9 74 18 100 20 l47 2 -1 -40 c-1 -22 -5 -108 -9 -192 -6
-118 -5 -156 5 -168 10 -12 36 -15 120 -15 60 0 115 3 124 6 14 5 16 34 16
218 0 196 9 413 28 664 4 56 4 109 -1 117 -6 12 -32 15 -122 15 -68 0 -116 -4
-120 -10 -4 -6 -11 -90 -17 -188 -5 -97 -11 -178 -13 -180 -2 -2 -47 -4 -102
-5 l-98 -2 2 55 c1 30 6 109 11 175 6 72 6 127 0 138 -9 18 -60 20 -178 8z m5
-61 c3 -5 1 -10 -4 -10 -6 0 -11 5 -11 10 0 6 2 10 4 10 3 0 8 -4 11 -10z
m328 -391 c-6 -6 -9 -18 -6 -26 5 -13 2 -13 -15 -4 -28 15 -28 28 1 34 12 2
24 5 27 6 2 0 -1 -4 -7 -10z m-293 -179 c0 -5 -4 -10 -9 -10 -6 0 -13 5 -16
10 -3 6 1 10 9 10 9 0 16 -4 16 -10z"/>
<path d="M1413 2301 c-111 -38 -189 -109 -243 -219 -64 -131 -69 -155 -77
-337 -10 -246 27 -347 152 -413 45 -24 60 -27 150 -26 81 0 109 5 150 23 122
55 192 157 215 314 12 78 11 91 -5 133 -15 39 -25 49 -63 66 -42 19 -51 19
-140 7 -52 -7 -100 -18 -106 -25 -15 -14 -41 -208 -31 -224 5 -7 21 -9 46 -5
47 8 49 -2 10 -44 -35 -37 -89 -43 -120 -12 -43 43 -34 304 15 427 27 67 84
134 113 134 31 0 40 -22 43 -105 l3 -80 110 3 c61 2 114 8 118 12 16 14 20
165 7 220 -32 135 -191 204 -347 151z m207 -245 c0 -3 -4 -8 -10 -11 -5 -3
-10 -1 -10 4 0 6 5 11 10 11 6 0 10 -2 10 -4z m-260 -16 c0 -5 -4 -10 -10 -10
-5 0 -10 5 -10 10 0 6 5 10 10 10 6 0 10 -4 10 -10z m317 -387 c-3 -10 -5 -2
-5 17 0 19 2 27 5 18 2 -10 2 -26 0 -35z"/>
<path d="M3932 2308 c-8 -11 -41 -147 -59 -250 -3 -16 -9 -28 -13 -28 -10 0
-17 40 -26 145 -6 69 -11 83 -35 107 -25 26 -34 28 -101 28 -40 0 -78 -4 -84
-8 -6 -4 -26 -68 -44 -142 -18 -74 -37 -148 -44 -165 -12 -33 -13 -29 -31 193
-5 50 -13 96 -19 101 -6 5 -55 6 -111 3 l-100 -7 0 -70 c1 -124 55 -863 65
-890 l10 -26 121 3 122 3 14 40 c8 22 23 83 34 135 12 52 25 102 29 110 12 21
18 -10 30 -154 5 -66 13 -123 18 -128 5 -5 60 -7 122 -6 l114 3 9 35 c9 39 45
200 82 365 13 61 36 162 50 225 75 337 76 347 43 354 -13 2 -54 12 -93 20 -84
19 -90 19 -103 4z m-2 -638 c0 -5 -5 -10 -11 -10 -5 0 -7 5 -4 10 3 6 8 10 11
10 2 0 4 -4 4 -10z m-75 -11 c12 -18 -3 -22 -20 -5 -14 14 -14 16 -1 16 8 0
18 -5 21 -11z m-37 -11 c19 -19 14 -29 -8 -16 -20 13 -27 28 -12 28 4 0 13 -5
20 -12z m72 -68 c10 0 20 6 23 13 3 6 4 2 4 -10 -1 -16 -7 -23 -22 -23 -21 0
-49 33 -37 45 4 4 8 0 10 -9 2 -9 12 -16 22 -16z m40 -34 c0 -3 -4 -8 -10 -11
-5 -3 -10 -1 -10 4 0 6 5 11 10 11 6 0 10 -2 10 -4z m-100 -16 c5 8 7 1 6 -16
-2 -35 -14 -56 -27 -48 -6 4 -6 11 1 19 14 17 3 38 -16 31 -8 -3 -14 -1 -14 4
0 12 34 18 39 7 2 -5 7 -4 11 3z m84 -22 c-10 -15 -30 -8 -31 12 -1 16 1 18
17 8 10 -7 16 -16 14 -20z m-9 -56 c-6 -7 -35 18 -35 31 0 5 9 2 20 -8 11 -10
18 -20 15 -23z m-155 18 c0 -5 -5 -10 -11 -10 -5 0 -7 5 -4 10 3 6 8 10 11 10
2 0 4 -4 4 -10z m145 -50 c3 -5 1 -10 -4 -10 -6 0 -11 5 -11 10 0 6 2 10 4 10
3 0 8 -4 11 -10z m-65 -41 c0 -16 4 -19 18 -14 9 3 19 7 22 8 3 1 7 -2 10 -8
3 -6 -12 -11 -34 -13 -23 -2 -36 1 -32 6 3 6 1 12 -6 14 -6 2 -8 10 -4 16 12
19 26 14 26 -9z m90 11 c0 -5 -4 -10 -10 -10 -5 0 -10 5 -10 10 0 6 5 10 10
10 6 0 10 -4 10 -10z"/>
<path d="M5331 2299 c-13 -30 -38 -140 -46 -201 -4 -26 -13 -55 -20 -64 -10
-14 -13 -5 -18 57 -8 107 -26 177 -50 200 -18 17 -33 19 -101 17 -97 -4 -91 5
-138 -195 -18 -79 -35 -143 -39 -143 -3 0 -11 70 -17 157 -7 95 -16 159 -23
163 -17 11 -192 -1 -206 -14 -8 -8 -8 -62 2 -221 8 -115 17 -277 21 -360 3
-82 9 -154 12 -160 3 -5 9 -55 12 -111 4 -55 10 -106 14 -112 5 -8 48 -12 131
-12 l124 0 10 38 c5 20 22 90 38 154 15 65 31 118 34 118 3 0 10 -65 16 -144
6 -80 14 -149 18 -155 9 -16 232 -15 241 1 4 6 15 48 25 92 9 45 29 135 44
201 52 231 76 341 95 435 11 52 27 123 37 158 11 44 13 66 6 73 -11 11 -97 33
-175 46 -33 5 -39 3 -47 -18z m-70 -639 c6 0 7 -5 4 -10 -5 -8 -11 -7 -21 1
-12 10 -18 8 -29 -7 -13 -17 -14 -17 -15 -2 0 18 18 29 38 22 8 -2 18 -4 23
-4z m76 4 c-3 -3 -12 -4 -19 -1 -8 3 -5 6 6 6 11 1 17 -2 13 -5z m-97 -34 c0
-5 -5 -10 -11 -10 -5 0 -7 5 -4 10 3 6 8 10 11 10 2 0 4 -4 4 -10z m40 -34 c0
-7 10 -17 23 -20 21 -7 21 -7 2 -16 -14 -5 -24 -3 -32 8 -16 19 -17 42 -3 42
6 0 10 -6 10 -14z m50 -6 c0 -5 -4 -10 -10 -10 -5 0 -10 5 -10 10 0 6 5 10 10
10 6 0 10 -4 10 -10z m0 -50 c0 -5 -4 -10 -10 -10 -5 0 -10 5 -10 10 0 6 5 10
10 10 6 0 10 -4 10 -10z m-95 -31 c4 -18 3 -35 -4 -42 -17 -17 -27 1 -13 23
12 20 6 25 -20 21 -13 -2 -9 17 5 22 22 10 25 7 32 -24z m65 21 c0 -5 -4 -10
-10 -10 -5 0 -10 5 -10 10 0 6 5 10 10 10 6 0 10 -4 10 -10z m15 -20 c-3 -5
-14 -10 -23 -10 -15 0 -15 2 -2 10 20 13 33 13 25 0z m-15 -44 c14 -18 14 -18
-7 -6 -12 8 -19 18 -16 23 3 4 6 7 7 5 1 -2 8 -12 16 -22z m-60 -26 c0 -5 -2
-10 -4 -10 -3 0 -8 5 -11 10 -3 6 -1 10 4 10 6 0 11 -4 11 -10z m-10 -60 c0
-21 26 -28 32 -8 2 6 10 8 16 4 23 -14 11 -26 -27 -26 -38 0 -59 19 -45 41 10
16 24 10 24 -11z m100 10 c0 -5 -4 -10 -9 -10 -6 0 -13 5 -16 10 -3 6 1 10 9
10 9 0 16 -4 16 -10z"/>
<path d="M6112 2311 c-112 -5 -145 -9 -152 -21 -15 -24 -13 -250 3 -255 6 -3
58 4 115 14 58 11 105 15 108 10 3 -5 3 -49 -1 -97 -14 -201 -23 -637 -13
-649 14 -17 224 -18 234 -1 4 6 9 72 11 147 2 75 9 247 15 383 l11 246 96 7
c53 3 103 7 111 8 20 3 38 181 19 203 -9 11 -48 14 -213 12 -110 -1 -265 -4
-344 -7z m-72 -171 c0 -5 -4 -10 -10 -10 -5 0 -10 5 -10 10 0 6 5 10 10 10 6
0 10 -4 10 -10z m175 -552 c-2 -29 -4 -84 -5 -121 0 -47 -4 -67 -11 -65 -15 5
-12 207 3 225 16 20 17 17 13 -39z"/>
<path d="M4150 2105 c0 -39 3 -46 30 -60 19 -10 36 -13 46 -7 12 7 9 13 -20
32 -29 21 -34 29 -29 52 4 21 2 28 -11 28 -12 0 -16 -10 -16 -45z"/>
<path d="M4270 2040 c20 -13 33 -13 25 0 -3 6 -14 10 -23 10 -15 0 -15 -2 -2
-10z"/>
<path d="M6885 1211 c-107 -17 -199 -85 -250 -187 -29 -57 -30 -63 -30 -204 0
-145 0 -146 33 -211 40 -79 89 -120 180 -150 120 -40 279 -11 371 67 149 128
161 463 20 603 -68 68 -198 101 -324 82z m137 -198 c30 -35 39 -66 45 -152 8
-122 -2 -191 -33 -224 -21 -23 -33 -27 -78 -27 -45 0 -56 4 -82 31 -29 30 -29
32 -32 165 -4 149 -1 175 28 204 27 27 129 29 152 3z"/>
<path d="M5564 830 l1 -370 113 0 113 0 -3 128 -3 127 106 -4 106 -3 6 38 c4
22 7 63 7 92 l0 52 -110 0 -111 0 3 68 3 67 131 -2 131 -2 7 52 c3 29 6 69 6
90 l0 37 -253 0 -254 0 1 -370z"/>
<path d="M6114 830 l1 -370 221 0 221 0 8 81 c3 45 3 85 -2 90 -4 4 -58 10
-118 11 l-110 3 4 278 4 277 -115 0 -115 0 1 -370z"/>
<path d="M7360 1188 c0 -7 9 -51 20 -98 11 -47 31 -132 44 -190 52 -222 77
-327 89 -380 l14 -55 124 0 124 0 23 95 c37 156 43 173 53 163 6 -6 24 -67 41
-137 l31 -126 123 0 122 0 27 88 c51 165 64 208 125 417 34 116 63 216 65 223
3 9 -21 12 -99 12 l-103 0 -22 -107 c-12 -60 -35 -164 -52 -233 -16 -69 -32
-135 -35 -147 -11 -54 -32 -8 -54 117 -6 36 -20 101 -30 145 -10 44 -22 113
-26 153 l-7 72 -113 0 c-130 0 -122 8 -98 -102 l16 -73 -32 -125 c-17 -69 -36
-144 -42 -167 -11 -47 -25 -56 -33 -20 -12 55 -27 143 -50 287 -14 85 -28 165
-30 178 -5 21 -10 22 -110 22 -77 0 -105 -3 -105 -12z"/>
</g>
</svg>
