<?xml version="1.0" standalone="no"?>
<!DOCTYPE svg PUBLIC "-//W3C//DTD SVG 20010904//EN"
 "http://www.w3.org/TR/2001/REC-SVG-20010904/DTD/svg10.dtd">
<svg version="1.0" xmlns="http://www.w3.org/2000/svg"
 width="1256.000000pt" height="846.000000pt" viewBox="0 0 1256.000000 846.000000"
 preserveAspectRatio="xMidYMid meet">
<metadata>
Created by potrace 1.16, written by Peter Selinger 2001-2019
</metadata>
<g transform="translate(0.000000,846.000000) scale(0.100000,-0.100000)"
fill="#fff" stroke="none">
<path d="M0 4230 l0 -4230 6280 0 6280 0 0 4230 0 4230 -6280 0 -6280 0 0
-4230z m5478 3836 c61 -17 100 -40 109 -64 4 -9 15 -28 25 -41 22 -29 24 -84
3 -101 -8 -7 -15 -24 -15 -37 0 -27 -27 -71 -72 -118 -47 -49 -88 -102 -88
-113 0 -16 -41 -42 -66 -42 -16 0 -24 -10 -32 -39 -17 -55 -15 -67 13 -85 30
-20 51 -20 62 -3 4 8 24 17 43 20 19 3 44 9 55 12 41 11 80 -52 53 -87 -7 -9
-32 -18 -58 -21 -43 -4 -179 -46 -230 -71 -14 -7 -40 -13 -59 -14 -18 -2 -61
-12 -95 -24 -51 -17 -198 -37 -295 -39 -13 -1 -19 -4 -13 -8 7 -4 1 -13 -18
-25 -17 -9 -30 -23 -30 -29 0 -8 -3 -8 -9 2 -9 14 -3 51 9 51 7 0 35 24 136
112 29 26 70 56 91 67 59 30 109 85 126 138 21 66 31 187 17 212 -13 25 -17
151 -6 209 6 34 14 46 34 55 15 6 39 22 53 35 24 22 134 58 184 61 11 0 44 -6
73 -13z m786 -398 c9 -12 16 -35 16 -49 0 -19 10 -36 33 -54 77 -63 107 -90
107 -96 0 -3 -14 -5 -30 -4 -17 1 -33 -2 -37 -8 -8 -13 17 -26 36 -20 11 4 13
3 6 -4 -30 -32 -219 -39 -240 -9 -7 9 -16 62 -20 118 l-7 102 29 23 c37 30 87
30 107 1z m-1294 -18 c0 -5 -7 -10 -16 -10 -8 0 -12 5 -9 10 3 6 10 10 16 10
5 0 9 -4 9 -10z m715 -250 c12 -20 -6 -50 -30 -50 -32 0 -41 17 -19 41 19 21
39 25 49 9z m832 -20 c3 -10 14 -22 24 -25 11 -4 31 -30 46 -58 14 -29 36 -65
49 -80 13 -16 24 -37 24 -47 0 -10 23 -62 50 -115 29 -57 50 -110 50 -129 0
-19 14 -53 35 -86 19 -30 35 -58 35 -61 0 -3 25 -46 55 -95 31 -49 67 -113 81
-142 17 -35 35 -57 53 -63 44 -17 61 -39 61 -80 0 -48 -33 -76 -98 -84 -49 -6
-62 -10 -172 -52 -36 -13 -87 -31 -114 -40 -27 -8 -59 -21 -70 -28 -12 -7 -41
-19 -65 -25 -25 -6 -59 -23 -77 -36 -29 -23 -40 -25 -109 -21 -50 3 -81 9 -91
19 -17 17 -32 69 -39 135 -3 24 -9 51 -14 60 -36 65 -71 170 -71 215 0 15 -5
39 -12 55 -16 39 -21 71 -33 196 -6 56 7 79 20 37 3 -11 11 -20 16 -20 14 0
11 37 -3 44 -10 4 -10 7 -1 12 8 3 9 15 2 36 -5 19 -5 38 1 49 13 23 13 39 0
19 -6 -9 -10 -10 -10 -3 0 6 5 15 11 18 7 5 4 14 -8 28 -10 11 -12 17 -5 13 7
-4 12 -1 12 9 0 10 -5 13 -12 9 -8 -5 -9 -2 -5 10 10 24 -34 111 -84 167 -40
46 -40 47 -25 77 9 17 20 33 25 37 5 3 56 6 113 6 100 1 170 13 196 32 10 8
69 19 140 26 8 0 16 -8 19 -19z m-877 -105 c0 -8 -4 -15 -9 -15 -5 0 -11 7
-15 15 -3 9 0 15 9 15 8 0 15 -7 15 -15z m-222 -82 c-5 -25 -28 -28 -28 -4 0
12 6 21 16 21 9 0 14 -7 12 -17z m-421 1 c-3 -3 -12 -4 -19 -1 -8 3 -5 6 6 6
11 1 17 -2 13 -5z m751 -61 c-5 -25 -28 -28 -28 -4 0 12 6 21 16 21 9 0 14 -7
12 -17z m-904 -25 c-15 -24 13 -74 79 -139 l72 -71 3 -89 c3 -60 0 -89 -7 -89
-6 0 -11 -11 -11 -25 0 -13 -7 -42 -14 -62 -13 -34 -19 -98 -29 -338 -3 -62
-25 -149 -62 -240 -7 -16 -25 -61 -40 -100 -15 -38 -39 -94 -52 -124 -14 -30
-33 -74 -44 -98 -22 -51 -102 -133 -130 -133 -12 0 -19 -7 -19 -20 0 -13 -7
-20 -19 -20 -10 0 -21 -9 -24 -20 -7 -29 -5 -36 12 -32 7 2 1 -8 -15 -22 -20
-17 -24 -25 -14 -26 9 0 22 6 29 13 7 7 6 0 -3 -18 -9 -16 -16 -36 -16 -43 0
-7 -11 -31 -25 -53 -25 -39 -27 -79 -4 -79 5 0 1 -9 -9 -20 -10 -11 -25 -33
-32 -48 -21 -40 -42 -63 -68 -73 -18 -7 -22 -14 -17 -32 4 -14 3 -18 -3 -9 -5
7 -16 10 -26 6 -14 -5 -16 -15 -12 -53 l5 -46 -10 45 c-10 43 -14 47 -81 79
-62 30 -72 40 -89 79 -18 42 -18 69 1 57 11 -7 40 22 40 39 0 7 10 17 23 23
89 42 135 63 155 68 26 8 51 47 33 53 -15 5 -14 33 3 79 7 21 21 72 31 113 10
41 22 81 28 88 5 7 7 15 4 18 -3 4 2 23 12 43 10 20 27 63 37 96 10 33 28 69
39 80 12 11 24 28 28 38 3 9 16 17 27 17 15 0 20 7 20 28 0 15 7 71 15 124 8
54 17 164 20 245 3 81 10 189 16 240 16 148 15 224 -4 260 -25 46 -21 103 9
157 l26 47 59 -2 c32 -1 56 -6 53 -11z m406 -103 c0 -8 -9 -15 -20 -15 -20 0
-26 11 -13 23 12 13 33 7 33 -8z m830 -5 c0 -5 -4 -10 -10 -10 -5 0 -10 5 -10
10 0 6 5 10 10 10 6 0 10 -4 10 -10z m-662 -33 c2 -12 -3 -17 -17 -17 -15 0
-21 6 -21 21 0 25 33 22 38 -4z m152 -47 c0 -11 -6 -20 -13 -20 -19 0 -27 10
-20 26 8 21 33 17 33 -6z m-430 -85 c0 -8 -4 -16 -9 -19 -12 -8 -34 21 -27 33
9 14 36 2 36 -14z m688 -32 c5 -17 -26 -29 -40 -15 -6 6 -7 15 -3 22 9 14 37
9 43 -7z m202 -5 c0 -6 -6 -5 -15 2 -8 7 -15 14 -15 16 0 2 7 1 15 -2 8 -4 15
-11 15 -16z m68 -70 c12 -16 1 -50 -14 -40 -19 12 -27 52 -11 52 8 0 19 -6 25
-12z m-838 -18 c0 -11 -4 -20 -10 -20 -5 0 -10 9 -10 20 0 11 5 20 10 20 6 0
10 -9 10 -20z m727 -12 c-3 -8 -6 -5 -6 6 -1 11 2 17 5 13 3 -3 4 -12 1 -19z
m49 -5 c-7 -7 -26 7 -26 19 0 6 6 6 15 -2 9 -7 13 -15 11 -17z m-6 -50 c0 -22
-2 -25 -10 -13 -13 20 -13 40 0 40 6 0 10 -12 10 -27z m-567 -8 c7 -16 -8 -29
-23 -20 -15 9 -12 35 4 35 8 0 16 -7 19 -15z m457 5 c0 -6 -7 -22 -16 -35 -18
-28 -15 -31 49 -38 39 -5 39 -5 35 28 -2 19 0 31 4 29 4 -3 9 -31 10 -62 l1
-57 6 55 6 55 7 -78 c5 -64 11 -81 30 -98 17 -15 18 -19 6 -15 -11 3 -18 0
-18 -8 0 -8 5 -16 12 -18 6 -2 13 -37 16 -85 4 -75 3 -82 -17 -92 -21 -12 -21
-13 -4 -41 9 -16 20 -27 25 -24 4 3 5 -2 2 -10 -3 -9 -10 -14 -14 -11 -12 8
59 -125 100 -185 21 -30 55 -72 76 -93 37 -36 34 -48 -7 -27 -23 13 -23 12 -3
-29 19 -38 10 -55 -12 -23 -13 19 -18 20 -35 9 -17 -10 -23 -9 -38 8 -9 11
-25 25 -36 31 -10 6 -30 31 -44 56 -14 26 -48 76 -76 112 -40 52 -55 65 -75
63 -23 -2 -25 2 -25 38 -1 22 -8 54 -18 71 -9 18 -18 51 -19 75 -2 24 -5 46
-8 49 -19 19 -46 67 -43 76 2 6 15 9 28 6 31 -6 58 5 49 19 -4 7 -9 8 -13 1
-4 -7 -13 -5 -25 4 -11 7 -17 17 -13 20 4 4 -1 13 -11 21 -15 13 -13 14 21 11
39 -4 46 4 22 28 -17 18 -10 40 15 47 15 4 17 12 13 50 -3 25 -3 53 0 62 7 17
37 21 37 5z m170 -40 c0 -5 -2 -10 -4 -10 -3 0 -8 5 -11 10 -3 6 -1 10 4 10 6
0 11 -4 11 -10z m-53 -72 c-3 -7 -5 -2 -5 12 0 14 2 19 5 13 2 -7 2 -19 0 -25z
m110 -20 c-3 -8 -6 -5 -6 6 -1 11 2 17 5 13 3 -3 4 -12 1 -19z m-357 -58 c0
-5 -2 -10 -4 -10 -3 0 -8 5 -11 10 -3 6 -1 10 4 10 6 0 11 -4 11 -10z m-35
-20 c3 -5 1 -10 -4 -10 -6 0 -11 5 -11 10 0 6 2 10 4 10 3 0 8 -4 11 -10z
m405 -10 c0 -5 -5 -10 -11 -10 -5 0 -7 5 -4 10 3 6 8 10 11 10 2 0 4 -4 4 -10z
m-363 -16 c-3 -3 -12 -4 -19 -1 -8 3 -5 6 6 6 11 1 17 -2 13 -5z m300 -20 c-3
-3 -12 -4 -19 -1 -8 3 -5 6 6 6 11 1 17 -2 13 -5z m63 -24 c0 -22 -7 -25 -30
-10 -13 8 -12 10 3 10 10 0 15 5 12 10 -3 6 -1 10 4 10 6 0 11 -9 11 -20z
m-454 -31 c10 -11 14 -19 9 -18 -6 1 -18 -1 -28 -6 -22 -9 -42 8 -34 29 9 22
30 20 53 -5z m394 -28 c0 -12 9 -21 25 -25 30 -8 32 -22 4 -29 -15 -4 -19 -11
-14 -25 3 -11 1 -23 -4 -27 -12 -7 -23 31 -17 60 2 11 -1 30 -5 43 -5 13 -5
22 1 22 6 0 10 -9 10 -19z m70 9 c0 -5 -4 -10 -10 -10 -5 0 -10 5 -10 10 0 6
5 10 10 10 6 0 10 -4 10 -10z m-3 -77 c-3 -10 -5 -4 -5 12 0 17 2 24 5 18 2
-7 2 -21 0 -30z m-759 -47 c3 -12 -1 -17 -10 -14 -7 3 -15 13 -16 22 -3 12 1
17 10 14 7 -3 15 -13 16 -22z m752 14 c0 -5 -2 -10 -4 -10 -3 0 -8 5 -11 10
-3 6 -1 10 4 10 6 0 11 -4 11 -10z m80 -10 c0 -5 -4 -10 -10 -10 -5 0 -10 5
-10 10 0 6 5 10 10 10 6 0 10 -4 10 -10z m-570 -290 c0 -11 -7 -20 -15 -20 -8
0 -15 9 -15 20 0 11 7 20 15 20 8 0 15 -9 15 -20z m335 -61 c0 -7 -8 -15 -17
-17 -18 -3 -25 18 -11 32 10 10 28 1 28 -15z m75 -24 c0 -8 -7 -15 -15 -15 -8
0 -15 7 -15 15 0 8 7 15 15 15 8 0 15 -7 15 -15z m195 -34 c-3 -6 -11 -11 -17
-11 -6 0 -6 6 2 15 14 17 26 13 15 -4z m-770 -71 c0 -8 -8 -16 -17 -18 -13 -2
-18 3 -18 18 0 15 5 20 18 18 9 -2 17 -10 17 -18z m323 -83 c2 -12 -3 -17 -17
-17 -15 0 -21 6 -21 21 0 25 33 22 38 -4z m152 -52 c0 -8 -7 -15 -15 -15 -8 0
-15 7 -15 15 0 8 7 15 15 15 8 0 15 -7 15 -15z m483 -1 c11 -11 -3 -24 -18
-18 -8 4 -12 10 -9 15 6 11 18 12 27 3z m-388 -69 c0 -28 -29 -25 -33 3 -3 19
0 23 15 20 10 -2 18 -12 18 -23z m215 0 c0 -8 -4 -15 -9 -15 -13 0 -22 16 -14
24 11 11 23 6 23 -9z m-777 -86 c3 -13 1 -19 -6 -16 -15 5 -22 37 -9 37 5 0
12 -9 15 -21z m257 11 c0 -5 -4 -10 -10 -10 -5 0 -10 5 -10 10 0 6 5 10 10 10
6 0 10 -4 10 -10z m868 -42 c-6 -18 -28 -21 -28 -4 0 9 7 16 16 16 9 0 14 -5
12 -12z m-920 -51 c2 -10 -3 -17 -12 -17 -18 0 -29 16 -21 31 9 14 29 6 33
-14z m452 9 c0 -3 -4 -8 -10 -11 -5 -3 -10 -1 -10 4 0 6 5 11 10 11 6 0 10 -2
10 -4z m218 -84 c2 -7 -3 -12 -12 -12 -9 0 -16 7 -16 16 0 17 22 14 28 -4z
m-388 -12 c0 -5 -4 -10 -10 -10 -5 0 -10 5 -10 10 0 6 5 10 10 10 6 0 10 -4
10 -10z m163 -55 c1 -5 -6 -11 -15 -13 -11 -2 -18 3 -18 13 0 17 30 18 33 0z
m467 -20 c10 -12 10 -15 -4 -15 -9 0 -16 7 -16 15 0 8 2 15 4 15 2 0 9 -7 16
-15z m-726 -64 c3 -5 0 -11 -8 -14 -15 -6 -26 1 -26 15 0 11 27 10 34 -1z m39
-75 c7 -16 -1 -26 -20 -26 -7 0 -13 9 -13 20 0 23 25 27 33 6z m-1507 -110
c-2 -6 -5 -3 -5 7 -1 9 -5 17 -11 17 -5 0 -7 7 -3 17 5 14 8 12 15 -7 5 -13 7
-28 4 -34z m-62 9 c-4 -8 -8 -15 -10 -15 -2 0 -4 7 -4 15 0 8 4 15 10 15 5 0
7 -7 4 -15z m1446 -5 c0 -5 -4 -10 -10 -10 -5 0 -10 5 -10 10 0 6 5 10 10 10
6 0 10 -4 10 -10z m758 -17 c-3 -30 -25 -42 -34 -19 -9 22 2 46 21 46 12 0 15
-8 13 -27z m-388 7 c0 -5 -4 -10 -10 -10 -5 0 -10 5 -10 10 0 6 5 10 10 10 6
0 10 -4 10 -10z m-529 -23 c-1 -12 -15 -9 -19 4 -3 6 1 10 8 8 6 -3 11 -8 11
-12z m-1274 -19 c-3 -8 -6 -5 -6 6 -1 11 2 17 5 13 3 -3 4 -12 1 -19z m1673
-8 c0 -5 -4 -10 -9 -10 -6 0 -13 5 -16 10 -3 6 1 10 9 10 9 0 16 -4 16 -10z
m-1653 -72 c-3 -7 -5 -2 -5 12 0 14 2 19 5 13 2 -7 2 -19 0 -25z m82 -62 c2
-45 -6 -27 -12 29 -4 34 -3 42 3 25 4 -14 8 -38 9 -54z m1825 43 c-3 -5 -10
-7 -15 -3 -5 3 -7 10 -3 15 3 5 10 7 15 3 5 -3 7 -10 3 -15z m-1897 -21 c-3
-8 -6 -5 -6 6 -1 11 2 17 5 13 3 -3 4 -12 1 -19z m93 -62 c0 -3 -4 -8 -10 -11
-5 -3 -10 -1 -10 4 0 6 5 11 10 11 6 0 10 -2 10 -4z m-65 -26 c-3 -5 -10 -10
-16 -10 -5 0 -9 5 -9 10 0 6 7 10 16 10 8 0 12 -4 9 -10z m-660 -30 c3 -11 3
-29 0 -40 -4 -12 -2 -20 5 -20 8 0 9 -16 5 -54 -6 -43 -4 -54 9 -59 21 -8 20
-49 -3 -123 -64 -199 -93 -394 -97 -649 -2 -110 -5 -207 -7 -216 -3 -11 3 -15
22 -13 14 1 18 -1 8 -3 -14 -4 -16 -8 -7 -18 8 -10 27 -12 66 -8 40 4 59 2 72
-9 9 -9 36 -18 60 -21 50 -6 63 -14 42 -27 -8 -6 -10 -10 -5 -11 6 -1 -3 -5
-20 -8 -34 -8 -54 -3 -34 10 20 12 6 20 -43 26 -24 2 -52 8 -63 13 -11 5 -39
10 -63 12 -40 3 -44 2 -49 -24 -9 -47 -108 -100 -128 -68 -4 6 -11 8 -16 5 -5
-4 -9 1 -9 9 0 9 -5 16 -11 16 -8 0 -10 23 -7 73 3 40 2 82 -2 93 -4 11 -4 42
1 69 4 28 17 104 29 170 11 66 25 147 30 180 5 33 13 76 19 95 6 19 11 70 11
112 0 64 4 82 19 97 14 14 24 46 32 102 6 45 18 94 25 108 8 14 14 33 14 41 0
10 3 11 8 3 14 -22 72 -2 72 25 0 5 -10 31 -21 57 -21 47 -21 49 -3 62 24 18
32 16 39 -7z m2180 10 c3 -5 -1 -10 -9 -10 -9 0 -16 5 -16 10 0 6 4 10 9 10 6
0 13 -4 16 -10z m345 -30 c0 -5 -2 -10 -4 -10 -3 0 -8 5 -11 10 -3 6 -1 10 4
10 6 0 11 -4 11 -10z m-1810 -16 c0 -11 -6 -14 -22 -9 -39 12 -44 25 -10 25
22 0 32 -5 32 -16z m-205 -22 c1 -16 -5 -26 -19 -32 -27 -10 -46 -2 -46 19 0
43 62 55 65 13z m-580 -52 c3 -5 1 -10 -4 -10 -6 0 -11 5 -11 10 0 6 2 10 4
10 3 0 8 -4 11 -10z m42 4 c-3 -3 -12 -4 -19 -1 -8 3 -5 6 6 6 11 1 17 -2 13
-5z m2373 -14 c0 -5 -4 -10 -10 -10 -5 0 -10 5 -10 10 0 6 5 10 10 10 6 0 10
-4 10 -10z m-2283 -36 c-3 -3 -12 -4 -19 -1 -8 3 -5 6 6 6 11 1 17 -2 13 -5z
m2428 -34 c10 -16 -16 -43 -28 -31 -11 11 -2 41 12 41 5 0 13 -5 16 -10z
m-612 -15 c7 -16 -8 -29 -23 -20 -15 9 -12 35 4 35 8 0 16 -7 19 -15z m-1633
-46 c0 -12 -7 -19 -19 -19 -22 0 -37 30 -20 41 18 11 39 -1 39 -22z m2007 -23
c-4 -9 -11 -16 -17 -16 -11 0 -14 33 -3 44 11 10 26 -11 20 -28z m-1677 -30
c0 -7 -6 -19 -14 -25 -12 -10 -17 -8 -25 7 -6 11 -7 22 -4 26 12 11 43 6 43
-8z m1420 -41 c0 -8 -7 -15 -15 -15 -16 0 -20 12 -8 23 11 12 23 8 23 -8z m-9
-56 c6 -11 8 -28 4 -37 -6 -16 -7 -16 -16 1 -6 9 -18 17 -27 17 -9 0 -25 7
-35 14 -17 13 -17 15 4 30 25 17 52 8 70 -25z m-121 -9 c-11 -7 -11 -10 -2
-10 7 0 11 -4 7 -10 -3 -5 -12 -7 -20 -4 -18 7 -8 34 14 34 14 0 14 -2 1 -10z
m-1790 -30 c0 -13 -7 -20 -20 -20 -13 0 -20 7 -20 20 0 13 7 20 20 20 13 0 20
-7 20 -20z m1730 -11 c0 -6 9 -9 19 -6 10 2 23 2 29 -2 15 -9 19 -43 5 -48 -8
-3 -13 4 -13 17 0 18 -4 21 -22 16 -13 -3 -28 -6 -35 -6 -6 0 -26 -12 -45 -27
-31 -25 -32 -25 -12 -3 12 14 30 35 40 48 20 24 34 29 34 11z m440 -39 c0 -5
-4 -10 -10 -10 -5 0 -10 5 -10 10 0 6 5 10 10 10 6 0 10 -4 10 -10z m-1852
-34 c-4 -31 -38 -34 -38 -3 0 29 7 37 27 30 8 -3 13 -15 11 -27z m1572 -46
c-6 -41 -13 -76 -17 -79 -7 -7 3 118 13 142 13 34 14 10 4 -63z m-110 40 c0
-5 -7 -10 -15 -10 -8 0 -15 5 -15 10 0 6 7 10 15 10 8 0 15 -4 15 -10z m-160
-25 c-7 -9 -15 -13 -19 -10 -3 3 1 10 9 15 21 14 24 12 10 -5z m116 -42 c-6
-14 -8 -14 -20 3 -11 14 -11 22 -3 32 8 11 12 10 20 -3 5 -9 6 -23 3 -32z m38
21 c15 -39 -4 -42 -24 -3 -8 15 -7 19 4 19 7 0 17 -7 20 -16z m-184 -8 c0 -2
-7 -7 -16 -10 -8 -3 -12 -2 -9 4 6 10 25 14 25 6z m90 -21 c-7 -9 -15 -13 -18
-10 -3 2 1 11 8 20 7 9 15 13 18 10 3 -2 -1 -11 -8 -20z m4324 -302 c3 -175 9
-377 12 -448 l6 -130 37 33 c67 63 114 92 181 112 188 56 363 -9 421 -158 22
-55 23 -71 27 -418 l4 -361 -113 -5 c-62 -3 -119 -4 -126 -1 -10 4 -13 45 -14
172 0 91 -4 236 -8 322 -7 150 -8 158 -34 193 -59 77 -196 71 -275 -12 -14
-15 -39 -56 -56 -92 l-31 -65 -3 -262 -4 -261 -91 -7 c-51 -4 -105 -5 -122 -3
l-30 3 -7 270 c-11 420 -25 1409 -20 1423 3 9 37 12 122 12 l117 0 7 -317z
m-4454 303 c0 -3 -4 -8 -10 -11 -5 -3 -10 -1 -10 4 0 6 5 11 10 11 6 0 10 -2
10 -4z m420 -17 c0 -24 -23 -21 -28 4 -2 10 3 17 12 17 10 0 16 -9 16 -21z
m-1400 -4 c15 -18 5 -35 -21 -35 -12 0 -19 7 -19 18 0 33 20 42 40 17z m1236
-5 c8 0 14 -5 14 -11 0 -6 -9 -8 -20 -4 -11 3 -20 3 -20 -2 0 -5 -9 -9 -19 -9
-16 0 -18 4 -9 19 5 11 16 16 25 13 8 -3 21 -6 29 -6z m-110 -20 c14 0 22 -4
19 -10 -6 -9 10 -14 42 -13 6 0 9 -6 6 -13 -3 -8 -13 -14 -22 -14 -15 0 -22
-10 -56 -92 -12 -31 -13 -42 -3 -58 17 -26 22 -25 38 5 7 14 22 25 33 25 16 0
17 3 7 15 -7 8 -19 15 -27 15 -8 0 -12 4 -8 9 3 5 21 7 40 4 23 -4 35 -2 35 6
0 6 -14 11 -31 11 -24 0 -30 4 -27 18 4 16 9 17 68 10 21 -3 25 2 33 35 5 20
14 37 19 37 6 0 7 -9 3 -22 -16 -54 -15 -70 11 -164 18 -64 27 -119 25 -154
-1 -34 4 -67 13 -85 14 -27 13 -32 -6 -67 -12 -21 -39 -49 -61 -64 l-39 -26
-71 69 c-40 37 -76 74 -80 81 -4 7 -19 23 -33 37 -16 16 -24 35 -24 58 0 34
26 133 39 152 4 6 16 33 26 60 10 28 22 54 26 60 16 16 10 35 -15 47 -28 12
-47 44 -20 34 8 -3 27 -6 40 -6z m134 -22 c0 -23 -19 -43 -40 -44 -25 -2 -26
11 -2 25 9 6 13 11 9 11 -5 0 -5 5 -2 10 9 14 35 12 35 -2z m-1822 -61 c2 -15
-1 -27 -6 -27 -17 0 -34 29 -28 46 9 23 31 11 34 -19z m-1564 -19 c4 -20 21
-883 29 -1483 l2 -190 -112 -9 c-61 -5 -118 -6 -126 -3 -12 4 -15 76 -21 414
-3 224 -11 601 -17 836 -6 235 -8 434 -5 442 4 12 30 15 125 15 117 0 121 -1
125 -22z m5668 6 c8 -7 -21 -95 -140 -429 -60 -169 -161 -452 -238 -670 -31
-88 -69 -194 -84 -235 -15 -41 -47 -128 -70 -193 -23 -65 -47 -116 -53 -114
-9 3 -68 127 -102 217 -14 35 -31 76 -144 340 -99 232 -113 263 -131 297 l-16
31 -109 -251 c-59 -139 -124 -288 -143 -332 -19 -44 -42 -100 -52 -125 -40
-99 -89 -200 -98 -200 -6 0 -15 12 -20 28 -9 24 -103 254 -209 512 -121 293
-419 1037 -427 1066 -8 28 11 31 172 24 l124 -5 79 -210 c116 -308 126 -334
152 -405 79 -213 143 -370 152 -370 10 0 64 129 133 315 17 44 45 118 62 165
51 135 52 131 -30 333 -40 97 -71 179 -69 181 2 3 58 8 124 12 l121 7 13 -29
c17 -36 155 -359 186 -434 13 -30 39 -95 59 -143 20 -48 44 -107 55 -130 10
-23 35 -80 55 -126 20 -46 43 -92 50 -102 13 -19 9 -29 146 391 10 30 32 102
50 160 17 58 54 176 81 262 l50 157 47 4 c81 6 218 7 224 1z m-2585 -29 c-11
-7 -26 -11 -34 -8 -12 5 -12 7 -1 14 7 5 22 9 33 9 19 -1 19 -1 2 -15z m-1309
-32 c3 -21 -22 -38 -39 -27 -13 8 -11 42 4 47 20 9 32 2 35 -20z m447 -3 c0
-22 -29 -18 -33 3 -3 14 1 18 15 15 10 -2 18 -10 18 -18z m1050 -10 c-3 -5
-11 -10 -16 -10 -6 0 -7 5 -4 10 3 6 11 10 16 10 6 0 7 -4 4 -10z m-4230 -31
c78 -11 186 -41 258 -71 35 -15 47 -26 47 -42 0 -32 -65 -221 -76 -221 -5 1
-54 16 -109 35 -96 33 -106 34 -250 34 -137 0 -156 -2 -222 -26 -229 -84 -343
-257 -343 -521 0 -171 48 -295 153 -394 129 -122 348 -179 533 -138 43 9 94
23 112 31 l33 13 -3 123 -3 123 -145 5 -145 5 -3 121 -3 121 143 6 c79 4 204
7 279 7 l137 0 7 -142 c3 -79 5 -228 3 -333 l-3 -189 -40 -28 c-22 -15 -74
-41 -117 -58 -129 -53 -212 -71 -354 -77 -112 -5 -147 -2 -235 17 -259 55
-436 185 -545 401 -126 252 -105 611 51 854 117 181 314 306 543 345 68 11
216 11 297 -1z m3432 -91 c-3 -8 -6 -5 -6 6 -1 11 2 17 5 13 3 -3 4 -12 1 -19z
m3661 -14 c56 -37 78 -119 45 -174 -21 -36 -81 -70 -123 -70 -117 0 -183 130
-109 215 48 54 128 67 187 29z m713 -164 c4 -80 7 -169 8 -197 l1 -53 83 0
c45 0 99 -3 120 -6 l37 -7 0 -92 0 -93 -72 -6 c-40 -4 -91 -7 -113 -9 l-40 -2
-5 -360 -5 -360 -121 -3 -121 -3 -6 212 c-4 117 -7 258 -7 314 0 56 -3 123 -6
149 l-7 46 -58 0 c-90 0 -89 -1 -89 105 l0 93 73 9 72 8 3 197 2 197 48 4 c26
2 81 3 122 3 l75 -1 6 -145z m-4854 18 c16 -22 9 -43 -15 -46 -24 -4 -38 18
-28 43 7 18 30 20 43 3z m473 -16 c0 -5 -3 -12 -7 -15 -3 -4 -14 -29 -22 -55
-14 -42 -20 -48 -51 -53 -19 -3 -39 -7 -45 -9 -39 -10 -31 5 14 25 29 14 57
23 61 20 5 -3 7 8 5 24 -3 19 1 31 11 35 8 3 14 12 14 21 0 8 5 15 10 15 6 0
10 -4 10 -8z m-180 -22 c-20 -13 -33 -13 -25 0 3 6 14 10 23 10 15 0 15 -2 2
-10z m-535 -84 c-17 -12 -9 -13 65 -12 47 1 77 0 68 -2 -23 -5 -23 -14 1 -29
26 -16 24 -69 -2 -65 -24 4 -21 -9 9 -37 16 -15 28 -21 32 -14 7 10 74 14 68
4 -2 -3 2 -11 9 -18 10 -9 18 -8 34 4 21 14 21 16 4 29 -20 15 -6 19 16 5 8
-5 24 -6 37 -1 18 7 22 6 17 -6 -3 -8 -16 -17 -30 -20 -18 -5 -21 -9 -12 -15
8 -4 16 -3 20 3 4 7 9 7 13 -1 13 -20 39 -13 33 9 -3 13 0 20 9 20 8 0 14 -8
14 -17 0 -13 3 -14 12 -5 14 14 38 16 38 2 0 -5 -6 -7 -14 -4 -8 3 -16 -3 -19
-15 -3 -12 -1 -19 4 -16 11 7 49 -13 49 -25 0 -6 -9 -10 -21 -10 -17 0 -20 -4
-15 -24 5 -20 95 -215 184 -398 l28 -57 43 112 c152 388 140 364 173 371 17 3
71 6 120 6 l90 0 -7 -27 c-17 -69 -379 -946 -392 -950 -5 -2 -51 81 -103 184
-105 208 -187 363 -201 377 -5 6 -15 -7 -25 -30 -9 -21 -24 -57 -34 -79 -10
-22 -32 -74 -49 -115 -122 -288 -142 -335 -151 -344 -12 -12 -43 51 -361 754
l-89 195 113 6 c119 7 142 2 152 -33 4 -11 41 -91 82 -177 104 -218 116 -241
120 -237 11 10 133 303 133 318 0 32 -53 126 -74 133 -21 6 -21 6 -1 15 21 9
17 11 -35 14 -39 3 -104 27 -113 42 -4 8 -15 14 -23 14 -8 0 -13 4 -10 9 7 11
-13 9 -31 -2 -7 -5 -13 -4 -13 2 0 13 -59 8 -87 -7 -15 -9 -29 -10 -41 -3 -9
5 -73 12 -142 15 -69 3 -138 10 -155 15 l-30 9 35 2 c19 1 38 2 41 2 3 -1 30
-4 59 -8 44 -6 52 -5 45 7 -7 11 -6 12 6 3 8 -7 38 -12 67 -12 29 1 55 -2 58
-5 3 -3 14 3 25 14 10 10 25 19 33 19 7 0 16 10 19 22 6 21 7 21 27 3 12 -11
20 -13 20 -6 0 7 5 9 11 5 17 -10 79 -12 79 -3 0 14 -33 26 -64 25 -23 -1 -31
4 -42 29 l-12 30 41 6 c23 3 46 7 51 7 6 1 1 -4 -9 -12z m285 -5 l31 -19 -32
-4 c-17 -3 -46 -2 -63 3 l-31 7 32 1 c33 1 52 16 31 24 -7 3 -10 6 -6 6 4 1
21 -7 38 -18z m103 -10 c40 4 68 -1 63 -10 -3 -5 -15 -7 -26 -4 -12 3 -20 0
-20 -7 0 -10 -4 -9 -16 1 -12 10 -17 10 -23 0 -8 -12 -16 -6 -36 27 -6 11 -3
12 14 3 12 -7 31 -11 44 -10z m122 -12 c11 -16 1 -19 -13 -3 -7 8 -8 14 -3 14
5 0 13 -5 16 -11z m-720 -69 c-3 -5 -14 -10 -23 -9 -14 0 -13 2 3 9 27 11 27
11 20 0z m-140 -11 c12 -19 -5 -23 -22 -6 -16 16 -16 17 -1 17 9 0 20 -5 23
-11z m180 1 c-3 -5 -11 -10 -16 -10 -6 0 -7 5 -4 10 3 6 11 10 16 10 6 0 7 -4
4 -10z m425 -10 c8 -5 11 -10 5 -10 -5 0 -17 5 -25 10 -8 5 -10 10 -5 10 6 0
17 -5 25 -10z m235 -40 c3 -5 2 -10 -4 -10 -5 0 -13 5 -16 10 -3 6 -2 10 4 10
5 0 13 -4 16 -10z m88 -17 c-7 -2 -19 -2 -25 0 -7 3 -2 5 12 5 14 0 19 -2 13
-5z m3852 -55 c3 -35 7 -243 8 -463 l2 -400 -122 -3 -123 -3 0 63 c0 35 -5
238 -10 453 -10 365 -10 390 6 402 12 9 54 13 125 13 l107 0 7 -62z m-4507 45
c-10 -2 -26 -2 -35 0 -10 3 -2 5 17 5 19 0 27 -2 18 -5z m105 -10 c-7 -2 -21
-2 -30 0 -10 3 -4 5 12 5 17 0 24 -2 18 -5z m-776 -67 c274 -109 387 -420 252
-694 -57 -116 -178 -211 -314 -247 -69 -18 -212 -20 -287 -4 -132 28 -248 111
-314 223 -27 45 -42 88 -57 163 -19 97 -20 106 -4 184 22 113 58 182 136 260
113 112 214 149 396 146 106 -2 129 -6 192 -31z m2141 -132 c15 -9 58 -54 96
-100 42 -52 75 -83 83 -80 13 5 103 -70 103 -87 0 -19 69 -153 86 -168 11 -9
37 -20 59 -23 22 -4 54 -19 72 -34 26 -23 30 -32 26 -59 -4 -22 -12 -33 -28
-37 -12 -3 -25 -15 -28 -26 -5 -19 -13 -20 -125 -20 -73 0 -123 -4 -127 -10
-6 -9 -82 -7 -89 2 -12 15 -37 122 -32 135 11 27 19 121 12 145 -3 13 -31 43
-62 68 -31 25 -81 73 -110 108 -52 61 -54 65 -54 122 0 46 4 61 18 69 26 15
71 13 100 -5z m4112 7 c0 -9 -24 -21 -41 -21 -5 0 -9 7 -9 15 0 9 9 15 25 15
14 0 25 -4 25 -9z m-60 -11 c0 -5 -5 -10 -11 -10 -5 0 -7 5 -4 10 3 6 8 10 11
10 2 0 4 -4 4 -10z m-4244 -518 c-13 -12 -17 8 -9 44 l8 39 3 -39 c2 -21 1
-41 -2 -44z m59 -92 c3 -6 -4 -10 -17 -10 -18 0 -20 2 -8 10 19 12 18 12 25 0z
m4310 -810 l0 -685 -134 -3 c-101 -2 -136 1 -143 10 -4 7 -8 312 -8 679 0 512
3 668 12 677 9 9 50 12 143 10 l130 -3 0 -685z m-475 430 l0 -130 -202 -2
c-112 0 -209 -1 -215 -1 -10 1 -13 -28 -13 -113 l0 -114 208 -2 207 -3 3 -119
c1 -66 -1 -123 -5 -127 -4 -4 -99 -11 -210 -15 l-203 -7 -1 -31 c-1 -17 -5
-125 -8 -241 l-6 -210 -135 0 -135 0 -8 290 c-8 294 -2 928 8 945 4 6 148 10
361 10 l354 0 0 -130z m1235 -305 c132 -35 242 -125 298 -242 29 -62 32 -77
32 -169 0 -96 -2 -103 -38 -176 -81 -165 -264 -261 -464 -244 -179 16 -312
101 -385 246 -31 62 -32 71 -32 175 0 105 1 113 33 178 38 76 119 158 192 194
105 52 251 67 364 38z m651 -10 c11 -3 94 -241 94 -268 0 -7 6 -23 13 -37 8
-14 19 -47 25 -73 7 -26 21 -56 31 -66 19 -19 19 -18 25 11 3 16 12 44 20 61
8 18 23 59 34 92 10 33 36 111 58 173 l38 112 112 0 c98 0 112 -2 117 -17 15
-49 100 -292 111 -318 7 -16 19 -51 26 -77 7 -27 17 -48 21 -48 5 0 9 -8 10
-17 0 -10 7 4 14 32 8 27 18 59 24 70 5 11 26 74 46 140 20 66 46 146 57 178
l21 57 148 0 c116 0 149 -3 149 -13 0 -7 -16 -60 -35 -118 -20 -57 -44 -129
-54 -159 -38 -115 -172 -482 -182 -501 -9 -18 -20 -19 -166 -17 l-156 3 -23
70 c-13 39 -31 97 -40 130 -9 33 -19 65 -23 70 -4 6 -16 40 -25 78 -10 37 -22
67 -27 67 -5 0 -9 12 -10 28 0 16 -15 -19 -36 -83 -20 -60 -54 -166 -77 -235
l-41 -125 -158 -3 -158 -3 -16 38 c-25 61 -263 753 -263 766 0 13 255 14 296
2z"/>
<path d="M5591 7884 c0 -11 3 -14 6 -6 3 7 2 16 -1 19 -3 4 -6 -2 -5 -13z"/>
<path d="M6170 7539 c0 -5 5 -7 10 -4 6 3 10 8 10 11 0 2 -4 4 -10 4 -5 0 -10
-5 -10 -11z"/>
<path d="M6325 7490 c3 -5 8 -10 11 -10 2 0 4 5 4 10 0 6 -5 10 -11 10 -5 0
-7 -4 -4 -10z"/>
<path d="M6350 7486 c0 -9 30 -14 35 -6 4 6 -3 10 -14 10 -12 0 -21 -2 -21 -4z"/>
<path d="M6377 7333 c-13 -12 -7 -33 8 -33 8 0 15 9 15 20 0 20 -11 26 -23 13z"/>
<path d="M6320 7290 c-14 -3 -20 -9 -15 -12 14 -8 65 -7 65 2 0 12 -23 17 -50
10z"/>
<path d="M6286 7256 c3 -9 13 -16 22 -16 8 0 13 1 11 3 -2 1 -12 9 -22 16 -15
12 -17 12 -11 -3z"/>
<path d="M6355 7220 c-3 -5 -15 -10 -26 -10 -10 0 -19 -4 -19 -10 0 -5 4 -10
9 -10 5 0 12 -13 16 -30 4 -16 10 -30 15 -30 4 0 10 -9 13 -20 6 -24 27 -27
27 -4 0 10 6 14 14 11 10 -4 13 -1 9 9 -3 7 -12 14 -20 14 -15 0 -10 35 8 55
17 17 9 35 -15 35 -14 0 -28 -4 -31 -10z"/>
<path d="M7056 6417 c3 -10 9 -15 12 -12 3 3 0 11 -7 18 -10 9 -11 8 -5 -6z"/>
<path d="M6012 6470 c0 -14 2 -19 5 -12 2 6 2 18 0 25 -3 6 -5 1 -5 -13z"/>
<path d="M6007 6340 c-3 -11 -1 -20 4 -20 5 0 9 -9 9 -20 0 -11 -4 -20 -10
-20 -5 0 -7 -7 -4 -15 8 -20 34 -19 34 1 0 9 5 12 12 8 6 -4 4 3 -5 17 -9 13
-17 31 -17 41 0 25 -17 31 -23 8z"/>
<path d="M5910 6341 c0 -5 5 -13 10 -16 6 -3 10 -2 10 4 0 5 -4 13 -10 16 -5
3 -10 2 -10 -4z"/>
<path d="M6052 6320 c0 -14 2 -19 5 -12 2 6 2 18 0 25 -3 6 -5 1 -5 -13z"/>
<path d="M5883 6223 c0 -8 11 -19 25 -24 20 -8 22 -12 12 -24 -10 -12 -9 -16
4 -21 40 -15 26 35 -18 68 -19 14 -23 14 -23 1z"/>
<path d="M5970 6191 c0 -5 9 -11 20 -14 24 -6 27 8 4 17 -21 8 -24 8 -24 -3z"/>
<path d="M6075 6000 c4 -6 11 -8 16 -5 14 9 11 15 -7 15 -8 0 -12 -5 -9 -10z"/>
<path d="M6105 5961 c-6 -11 9 -23 19 -14 9 9 7 23 -3 23 -6 0 -12 -4 -16 -9z"/>
<path d="M6074 5927 c3 -34 14 -46 36 -40 11 3 20 0 20 -6 0 -6 -5 -11 -10
-11 -7 0 -6 -8 1 -22 12 -22 13 -22 30 17 18 42 23 63 12 52 -3 -4 -11 1 -18
10 -8 10 -17 13 -25 8 -11 -7 -9 -10 6 -16 17 -7 17 -8 -4 -8 -16 -1 -26 6
-29 19 -7 28 -22 25 -19 -3z"/>
<path d="M6170 5830 c8 -5 20 -10 25 -10 6 0 3 5 -5 10 -8 5 -19 10 -25 10 -5
0 -3 -5 5 -10z"/>
<path d="M5620 3780 c8 -5 26 -10 40 -10 20 0 22 2 10 10 -8 5 -26 10 -40 10
-20 0 -22 -2 -10 -10z"/>
<path d="M5520 3750 c0 -5 6 -10 14 -10 8 0 18 5 21 10 3 6 -3 10 -14 10 -12
0 -21 -4 -21 -10z"/>
<path d="M5610 3726 c0 -7 12 -13 30 -13 17 0 30 1 30 3 0 1 -13 7 -30 13 -23
8 -30 7 -30 -3z"/>
<path d="M5513 3706 c22 -17 22 -26 -3 -26 -11 0 -20 -4 -20 -10 0 -15 29 -12
45 4 12 12 11 16 -4 30 -10 9 -22 16 -27 16 -5 0 -1 -7 9 -14z"/>
<path d="M5570 3689 c0 -5 5 -7 10 -4 6 3 10 8 10 11 0 2 -4 4 -10 4 -5 0 -10
-5 -10 -11z"/>
<path d="M5608 3673 c6 -2 18 -2 25 0 6 3 1 5 -13 5 -14 0 -19 -2 -12 -5z"/>
<path d="M5575 3660 c3 -5 8 -10 11 -10 2 0 4 5 4 10 0 6 -5 10 -11 10 -5 0
-7 -4 -4 -10z"/>
<path d="M4099 3379 c-6 -4 -8 -16 -4 -28 3 -12 11 -19 16 -15 6 3 5 12 -3 22
-12 16 -11 16 7 2 11 -8 23 -19 28 -25 4 -6 11 -4 17 5 7 11 10 11 10 2 0 -7
5 -10 10 -7 7 4 7 12 0 24 -10 20 -62 32 -81 20z"/>
<path d="M3968 3303 c6 -2 18 -2 25 0 6 3 1 5 -13 5 -14 0 -19 -2 -12 -5z"/>
<path d="M3910 3280 c0 -5 5 -10 10 -10 6 0 10 5 10 10 0 6 -4 10 -10 10 -5 0
-10 -4 -10 -10z"/>
<path d="M4105 3273 c-14 -4 -4 -10 34 -19 54 -14 78 -11 51 6 -8 5 -23 7 -32
4 -10 -3 -18 -1 -18 5 0 12 -3 12 -35 4z"/>
<path d="M4220 3219 c0 -5 5 -7 10 -4 6 3 10 8 10 11 0 2 -4 4 -10 4 -5 0 -10
-5 -10 -11z"/>
<path d="M4443 3183 c9 -2 23 -2 30 0 6 3 -1 5 -18 5 -16 0 -22 -2 -12 -5z"/>
<path d="M2993 2959 c-139 -69 -196 -244 -130 -401 8 -18 33 -52 57 -75 89
-90 238 -97 336 -17 128 104 131 329 5 447 -74 69 -183 88 -268 46z"/>
<path d="M5848 2553 c7 -3 16 -2 19 1 4 3 -2 6 -13 5 -11 0 -14 -3 -6 -6z"/>
<path d="M5855 2510 c-3 -5 3 -10 15 -10 12 0 18 5 15 10 -3 6 -10 10 -15 10
-5 0 -12 -4 -15 -10z"/>
<path d="M10175 1496 c-48 -21 -73 -57 -91 -126 -16 -61 -16 -68 1 -125 22
-73 58 -110 123 -124 52 -11 98 -4 149 23 39 19 46 33 67 111 14 53 14 67 1
115 -18 66 -41 100 -86 122 -40 21 -121 23 -164 4z"/>
</g>
</svg>
